G75*
%MOIN*%
%OFA0B0*%
%FSLAX24Y24*%
%IPPOS*%
%LPD*%
%AMOC8*
5,1,8,0,0,1.08239X$1,22.5*
%
%ADD10C,0.0100*%
D10*
X005683Y003785D02*
X005942Y003635D01*
X005683Y003785D02*
X005908Y004173D01*
X006167Y004023D01*
X005942Y003635D01*
X005999Y003734D02*
X005771Y003734D01*
X005711Y003833D02*
X006057Y003833D01*
X006114Y003932D02*
X005768Y003932D01*
X005826Y004031D02*
X006153Y004031D01*
X005982Y004130D02*
X005883Y004130D01*
X006289Y003435D02*
X006548Y003285D01*
X006289Y003435D02*
X006514Y003823D01*
X006773Y003673D01*
X006548Y003285D01*
X006605Y003384D02*
X006377Y003384D01*
X006317Y003483D02*
X006663Y003483D01*
X006720Y003582D02*
X006374Y003582D01*
X006432Y003681D02*
X006759Y003681D01*
X006588Y003780D02*
X006489Y003780D01*
X008172Y003603D02*
X008465Y003546D01*
X008172Y003603D02*
X008257Y004044D01*
X008550Y003987D01*
X008465Y003546D01*
X008484Y003645D02*
X008180Y003645D01*
X008199Y003744D02*
X008503Y003744D01*
X008522Y003843D02*
X008218Y003843D01*
X008237Y003942D02*
X008541Y003942D01*
X008272Y004041D02*
X008256Y004041D01*
X008859Y003471D02*
X009152Y003414D01*
X008859Y003471D02*
X008944Y003912D01*
X009237Y003855D01*
X009152Y003414D01*
X009171Y003513D02*
X008867Y003513D01*
X008886Y003612D02*
X009190Y003612D01*
X009209Y003711D02*
X008905Y003711D01*
X008924Y003810D02*
X009228Y003810D01*
X008959Y003909D02*
X008943Y003909D01*
X007787Y005429D02*
X007528Y005579D01*
X007753Y005967D01*
X008012Y005817D01*
X007787Y005429D01*
X007844Y005528D02*
X007616Y005528D01*
X007556Y005627D02*
X007902Y005627D01*
X007959Y005726D02*
X007613Y005726D01*
X007671Y005825D02*
X007998Y005825D01*
X007827Y005924D02*
X007728Y005924D01*
X007180Y005779D02*
X006921Y005929D01*
X007146Y006317D01*
X007405Y006167D01*
X007180Y005779D01*
X007237Y005878D02*
X007009Y005878D01*
X006949Y005977D02*
X007295Y005977D01*
X007352Y006076D02*
X007006Y006076D01*
X007064Y006175D02*
X007391Y006175D01*
X007220Y006274D02*
X007121Y006274D01*
X006284Y007473D02*
X006134Y007732D01*
X006522Y007957D01*
X006672Y007698D01*
X006284Y007473D01*
X006227Y007572D02*
X006455Y007572D01*
X006625Y007671D02*
X006169Y007671D01*
X006200Y007770D02*
X006630Y007770D01*
X006573Y007869D02*
X006370Y007869D01*
X005934Y008079D02*
X005784Y008338D01*
X006172Y008563D01*
X006322Y008304D01*
X005934Y008079D01*
X005877Y008178D02*
X006105Y008178D01*
X006275Y008277D02*
X005819Y008277D01*
X005850Y008376D02*
X006280Y008376D01*
X006223Y008475D02*
X006020Y008475D01*
X004765Y009662D02*
X004765Y009962D01*
X005215Y009962D01*
X005215Y009662D01*
X004765Y009662D01*
X004765Y009761D02*
X005215Y009761D01*
X005215Y009860D02*
X004765Y009860D01*
X004765Y009959D02*
X005215Y009959D01*
X004765Y010362D02*
X004765Y010662D01*
X005215Y010662D01*
X005215Y010362D01*
X004765Y010362D01*
X004765Y010461D02*
X005215Y010461D01*
X005215Y010560D02*
X004765Y010560D01*
X004765Y010659D02*
X005215Y010659D01*
X005784Y011986D02*
X005934Y012245D01*
X006322Y012020D01*
X006172Y011761D01*
X005784Y011986D01*
X006001Y011860D02*
X006229Y011860D01*
X006287Y011959D02*
X005831Y011959D01*
X005826Y012058D02*
X006256Y012058D01*
X006086Y012157D02*
X005883Y012157D01*
X006134Y012593D02*
X006284Y012852D01*
X006672Y012627D01*
X006522Y012368D01*
X006134Y012593D01*
X006351Y012467D02*
X006579Y012467D01*
X006637Y012566D02*
X006181Y012566D01*
X006176Y012665D02*
X006606Y012665D01*
X006436Y012764D02*
X006233Y012764D01*
X006921Y014395D02*
X007180Y014545D01*
X007405Y014157D01*
X007146Y014007D01*
X006921Y014395D01*
X007089Y014106D02*
X007317Y014106D01*
X007377Y014205D02*
X007031Y014205D01*
X006974Y014304D02*
X007320Y014304D01*
X007262Y014403D02*
X006935Y014403D01*
X007106Y014502D02*
X007205Y014502D01*
X007528Y014745D02*
X007787Y014895D01*
X008012Y014507D01*
X007753Y014357D01*
X007528Y014745D01*
X007696Y014456D02*
X007924Y014456D01*
X007984Y014555D02*
X007638Y014555D01*
X007581Y014654D02*
X007927Y014654D01*
X007869Y014753D02*
X007542Y014753D01*
X007713Y014852D02*
X007812Y014852D01*
X008172Y016721D02*
X008465Y016778D01*
X008550Y016337D01*
X008257Y016280D01*
X008172Y016721D01*
X008238Y016379D02*
X008542Y016379D01*
X008523Y016478D02*
X008219Y016478D01*
X008200Y016577D02*
X008504Y016577D01*
X008485Y016676D02*
X008181Y016676D01*
X008450Y016775D02*
X008466Y016775D01*
X008859Y016853D02*
X009152Y016910D01*
X009237Y016469D01*
X008944Y016412D01*
X008859Y016853D01*
X008925Y016511D02*
X009229Y016511D01*
X009210Y016610D02*
X008906Y016610D01*
X008887Y016709D02*
X009191Y016709D01*
X009172Y016808D02*
X008868Y016808D01*
X009137Y016907D02*
X009153Y016907D01*
X010733Y016910D02*
X011026Y016853D01*
X010941Y016412D01*
X010648Y016469D01*
X010733Y016910D01*
X010656Y016511D02*
X010960Y016511D01*
X010979Y016610D02*
X010675Y016610D01*
X010694Y016709D02*
X010998Y016709D01*
X011017Y016808D02*
X010713Y016808D01*
X010732Y016907D02*
X010748Y016907D01*
X011420Y016778D02*
X011713Y016721D01*
X011628Y016280D01*
X011335Y016337D01*
X011420Y016778D01*
X011343Y016379D02*
X011647Y016379D01*
X011666Y016478D02*
X011362Y016478D01*
X011381Y016577D02*
X011685Y016577D01*
X011704Y016676D02*
X011400Y016676D01*
X011419Y016775D02*
X011435Y016775D01*
X013337Y017039D02*
X013596Y016889D01*
X013371Y016501D01*
X013112Y016651D01*
X013337Y017039D01*
X013428Y016600D02*
X013200Y016600D01*
X013140Y016699D02*
X013486Y016699D01*
X013543Y016798D02*
X013197Y016798D01*
X013255Y016897D02*
X013582Y016897D01*
X013411Y016996D02*
X013312Y016996D01*
X013943Y016689D02*
X014202Y016539D01*
X013977Y016151D01*
X013718Y016301D01*
X013943Y016689D01*
X014034Y016250D02*
X013806Y016250D01*
X013746Y016349D02*
X014092Y016349D01*
X014149Y016448D02*
X013803Y016448D01*
X013861Y016547D02*
X014188Y016547D01*
X014017Y016646D02*
X013918Y016646D01*
X014737Y014975D02*
X014934Y014748D01*
X014595Y014455D01*
X014398Y014682D01*
X014737Y014975D01*
X014710Y014554D02*
X014509Y014554D01*
X014423Y014653D02*
X014824Y014653D01*
X014931Y014752D02*
X014479Y014752D01*
X014594Y014851D02*
X014845Y014851D01*
X014759Y014950D02*
X014708Y014950D01*
X015195Y014446D02*
X015392Y014219D01*
X015053Y013926D01*
X014856Y014153D01*
X015195Y014446D01*
X015168Y014025D02*
X014967Y014025D01*
X014881Y014124D02*
X015282Y014124D01*
X015389Y014223D02*
X014937Y014223D01*
X015052Y014322D02*
X015303Y014322D01*
X015217Y014421D02*
X015166Y014421D01*
X016181Y012852D02*
X016279Y012569D01*
X015855Y012422D01*
X015757Y012705D01*
X016181Y012852D01*
X016141Y012521D02*
X015821Y012521D01*
X015786Y012620D02*
X016261Y012620D01*
X016227Y012719D02*
X015797Y012719D01*
X016083Y012818D02*
X016193Y012818D01*
X016410Y012191D02*
X016508Y011908D01*
X016084Y011761D01*
X015986Y012044D01*
X016410Y012191D01*
X016370Y011860D02*
X016050Y011860D01*
X016015Y011959D02*
X016490Y011959D01*
X016456Y012058D02*
X016026Y012058D01*
X016312Y012157D02*
X016422Y012157D01*
X017596Y010662D02*
X017596Y010362D01*
X017146Y010362D01*
X017146Y010662D01*
X017596Y010662D01*
X017596Y010461D02*
X017146Y010461D01*
X017146Y010560D02*
X017596Y010560D01*
X017596Y010659D02*
X017146Y010659D01*
X017596Y009962D02*
X017596Y009662D01*
X017146Y009662D01*
X017146Y009962D01*
X017596Y009962D01*
X017596Y009761D02*
X017146Y009761D01*
X017146Y009860D02*
X017596Y009860D01*
X017596Y009959D02*
X017146Y009959D01*
X016508Y008417D02*
X016410Y008134D01*
X015986Y008281D01*
X016084Y008564D01*
X016508Y008417D01*
X016444Y008233D02*
X016124Y008233D01*
X016004Y008332D02*
X016479Y008332D01*
X016468Y008431D02*
X016038Y008431D01*
X016072Y008530D02*
X016182Y008530D01*
X016279Y007755D02*
X016181Y007472D01*
X015757Y007619D01*
X015855Y007902D01*
X016279Y007755D01*
X016215Y007571D02*
X015895Y007571D01*
X015775Y007670D02*
X016250Y007670D01*
X016239Y007769D02*
X015809Y007769D01*
X015843Y007868D02*
X015953Y007868D01*
X015392Y006105D02*
X015195Y005878D01*
X014856Y006171D01*
X015053Y006398D01*
X015392Y006105D01*
X015281Y005977D02*
X015080Y005977D01*
X014966Y006076D02*
X015367Y006076D01*
X015311Y006175D02*
X014859Y006175D01*
X014945Y006274D02*
X015196Y006274D01*
X015082Y006373D02*
X015031Y006373D01*
X014934Y005576D02*
X014737Y005349D01*
X014398Y005642D01*
X014595Y005869D01*
X014934Y005576D01*
X014823Y005448D02*
X014622Y005448D01*
X014508Y005547D02*
X014909Y005547D01*
X014853Y005646D02*
X014401Y005646D01*
X014487Y005745D02*
X014738Y005745D01*
X014624Y005844D02*
X014573Y005844D01*
X012964Y005929D02*
X012705Y005779D01*
X012480Y006167D01*
X012739Y006317D01*
X012964Y005929D01*
X012876Y005878D02*
X012648Y005878D01*
X012590Y005977D02*
X012936Y005977D01*
X012879Y006076D02*
X012533Y006076D01*
X012494Y006175D02*
X012821Y006175D01*
X012764Y006274D02*
X012665Y006274D01*
X012358Y005579D02*
X012099Y005429D01*
X011874Y005817D01*
X012133Y005967D01*
X012358Y005579D01*
X012270Y005528D02*
X012042Y005528D01*
X011984Y005627D02*
X012330Y005627D01*
X012273Y005726D02*
X011927Y005726D01*
X011888Y005825D02*
X012215Y005825D01*
X012158Y005924D02*
X012059Y005924D01*
X010443Y005648D02*
X010143Y005648D01*
X010143Y006098D01*
X010443Y006098D01*
X010443Y005648D01*
X010443Y005747D02*
X010143Y005747D01*
X010143Y005846D02*
X010443Y005846D01*
X010443Y005945D02*
X010143Y005945D01*
X010143Y006044D02*
X010443Y006044D01*
X009743Y005648D02*
X009443Y005648D01*
X009443Y006098D01*
X009743Y006098D01*
X009743Y005648D01*
X009743Y005747D02*
X009443Y005747D01*
X009443Y005846D02*
X009743Y005846D01*
X009743Y005945D02*
X009443Y005945D01*
X009443Y006044D02*
X009743Y006044D01*
X009025Y007574D02*
X008766Y007724D01*
X008991Y008112D01*
X009250Y007962D01*
X009025Y007574D01*
X009082Y007673D02*
X008854Y007673D01*
X008794Y007772D02*
X009140Y007772D01*
X009197Y007871D02*
X008851Y007871D01*
X008909Y007970D02*
X009236Y007970D01*
X009065Y008069D02*
X008966Y008069D01*
X008418Y007924D02*
X008159Y008074D01*
X008384Y008462D01*
X008643Y008312D01*
X008418Y007924D01*
X008475Y008023D02*
X008247Y008023D01*
X008187Y008122D02*
X008533Y008122D01*
X008590Y008221D02*
X008244Y008221D01*
X008302Y008320D02*
X008629Y008320D01*
X008458Y008419D02*
X008359Y008419D01*
X007241Y009662D02*
X007241Y009962D01*
X007691Y009962D01*
X007691Y009662D01*
X007241Y009662D01*
X007241Y009761D02*
X007691Y009761D01*
X007691Y009860D02*
X007241Y009860D01*
X007241Y009959D02*
X007691Y009959D01*
X007241Y010362D02*
X007241Y010662D01*
X007691Y010662D01*
X007691Y010362D01*
X007241Y010362D01*
X007241Y010461D02*
X007691Y010461D01*
X007691Y010560D02*
X007241Y010560D01*
X007241Y010659D02*
X007691Y010659D01*
X008159Y012251D02*
X008418Y012401D01*
X008643Y012013D01*
X008384Y011863D01*
X008159Y012251D01*
X008327Y011962D02*
X008555Y011962D01*
X008615Y012061D02*
X008269Y012061D01*
X008212Y012160D02*
X008558Y012160D01*
X008500Y012259D02*
X008173Y012259D01*
X008344Y012358D02*
X008443Y012358D01*
X008766Y012601D02*
X009025Y012751D01*
X009250Y012363D01*
X008991Y012213D01*
X008766Y012601D01*
X008934Y012312D02*
X009162Y012312D01*
X009222Y012411D02*
X008876Y012411D01*
X008819Y012510D02*
X009165Y012510D01*
X009107Y012609D02*
X008780Y012609D01*
X008951Y012708D02*
X009050Y012708D01*
X009443Y014676D02*
X009743Y014676D01*
X009743Y014226D01*
X009443Y014226D01*
X009443Y014676D01*
X009443Y014325D02*
X009743Y014325D01*
X009743Y014424D02*
X009443Y014424D01*
X009443Y014523D02*
X009743Y014523D01*
X009743Y014622D02*
X009443Y014622D01*
X010143Y014676D02*
X010443Y014676D01*
X010443Y014226D01*
X010143Y014226D01*
X010143Y014676D01*
X010143Y014325D02*
X010443Y014325D01*
X010443Y014424D02*
X010143Y014424D01*
X010143Y014523D02*
X010443Y014523D01*
X010443Y014622D02*
X010143Y014622D01*
X012099Y014895D02*
X012358Y014745D01*
X012133Y014357D01*
X011874Y014507D01*
X012099Y014895D01*
X012190Y014456D02*
X011962Y014456D01*
X011902Y014555D02*
X012248Y014555D01*
X012305Y014654D02*
X011959Y014654D01*
X012017Y014753D02*
X012344Y014753D01*
X012173Y014852D02*
X012074Y014852D01*
X012705Y014545D02*
X012964Y014395D01*
X012739Y014007D01*
X012480Y014157D01*
X012705Y014545D01*
X012796Y014106D02*
X012568Y014106D01*
X012508Y014205D02*
X012854Y014205D01*
X012911Y014304D02*
X012565Y014304D01*
X012623Y014403D02*
X012950Y014403D01*
X012779Y014502D02*
X012680Y014502D01*
X013601Y012852D02*
X013751Y012593D01*
X013363Y012368D01*
X013213Y012627D01*
X013601Y012852D01*
X013534Y012467D02*
X013306Y012467D01*
X013248Y012566D02*
X013704Y012566D01*
X013709Y012665D02*
X013279Y012665D01*
X013449Y012764D02*
X013652Y012764D01*
X013951Y012245D02*
X014101Y011986D01*
X013713Y011761D01*
X013563Y012020D01*
X013951Y012245D01*
X013884Y011860D02*
X013656Y011860D01*
X013598Y011959D02*
X014054Y011959D01*
X014059Y012058D02*
X013629Y012058D01*
X013799Y012157D02*
X014002Y012157D01*
X015120Y010662D02*
X015120Y010362D01*
X014670Y010362D01*
X014670Y010662D01*
X015120Y010662D01*
X015120Y010461D02*
X014670Y010461D01*
X014670Y010560D02*
X015120Y010560D01*
X015120Y010659D02*
X014670Y010659D01*
X015120Y009962D02*
X015120Y009662D01*
X014670Y009662D01*
X014670Y009962D01*
X015120Y009962D01*
X015120Y009761D02*
X014670Y009761D01*
X014670Y009860D02*
X015120Y009860D01*
X015120Y009959D02*
X014670Y009959D01*
X014101Y008338D02*
X013951Y008079D01*
X013563Y008304D01*
X013713Y008563D01*
X014101Y008338D01*
X014008Y008178D02*
X013780Y008178D01*
X013610Y008277D02*
X014066Y008277D01*
X014035Y008376D02*
X013605Y008376D01*
X013662Y008475D02*
X013865Y008475D01*
X013751Y007732D02*
X013601Y007473D01*
X013213Y007698D01*
X013363Y007957D01*
X013751Y007732D01*
X013658Y007572D02*
X013430Y007572D01*
X013260Y007671D02*
X013716Y007671D01*
X013685Y007770D02*
X013255Y007770D01*
X013312Y007869D02*
X013515Y007869D01*
X011726Y008074D02*
X011467Y007924D01*
X011242Y008312D01*
X011501Y008462D01*
X011726Y008074D01*
X011638Y008023D02*
X011410Y008023D01*
X011352Y008122D02*
X011698Y008122D01*
X011641Y008221D02*
X011295Y008221D01*
X011256Y008320D02*
X011583Y008320D01*
X011526Y008419D02*
X011427Y008419D01*
X011119Y007724D02*
X010860Y007574D01*
X010635Y007962D01*
X010894Y008112D01*
X011119Y007724D01*
X011031Y007673D02*
X010803Y007673D01*
X010745Y007772D02*
X011091Y007772D01*
X011034Y007871D02*
X010688Y007871D01*
X010649Y007970D02*
X010976Y007970D01*
X010919Y008069D02*
X010820Y008069D01*
X010168Y009662D02*
X010168Y009962D01*
X010168Y009662D02*
X009718Y009662D01*
X009718Y009962D01*
X010168Y009962D01*
X010168Y009761D02*
X009718Y009761D01*
X009718Y009860D02*
X010168Y009860D01*
X010168Y009959D02*
X009718Y009959D01*
X010168Y010362D02*
X010168Y010662D01*
X010168Y010362D02*
X009718Y010362D01*
X009718Y010662D01*
X010168Y010662D01*
X010168Y010461D02*
X009718Y010461D01*
X009718Y010560D02*
X010168Y010560D01*
X010168Y010659D02*
X009718Y010659D01*
X010860Y012751D02*
X011119Y012601D01*
X010894Y012213D01*
X010635Y012363D01*
X010860Y012751D01*
X010951Y012312D02*
X010723Y012312D01*
X010663Y012411D02*
X011009Y012411D01*
X011066Y012510D02*
X010720Y012510D01*
X010778Y012609D02*
X011105Y012609D01*
X010934Y012708D02*
X010835Y012708D01*
X011467Y012401D02*
X011726Y012251D01*
X011501Y011863D01*
X011242Y012013D01*
X011467Y012401D01*
X011558Y011962D02*
X011330Y011962D01*
X011270Y012061D02*
X011616Y012061D01*
X011673Y012160D02*
X011327Y012160D01*
X011385Y012259D02*
X011712Y012259D01*
X011541Y012358D02*
X011442Y012358D01*
X012644Y010662D02*
X012644Y010362D01*
X012194Y010362D01*
X012194Y010662D01*
X012644Y010662D01*
X012644Y010461D02*
X012194Y010461D01*
X012194Y010560D02*
X012644Y010560D01*
X012644Y010659D02*
X012194Y010659D01*
X012644Y009962D02*
X012644Y009662D01*
X012194Y009662D01*
X012194Y009962D01*
X012644Y009962D01*
X012644Y009761D02*
X012194Y009761D01*
X012194Y009860D02*
X012644Y009860D01*
X012644Y009959D02*
X012194Y009959D01*
X014202Y003785D02*
X013943Y003635D01*
X013718Y004023D01*
X013977Y004173D01*
X014202Y003785D01*
X014114Y003734D02*
X013886Y003734D01*
X013828Y003833D02*
X014174Y003833D01*
X014117Y003932D02*
X013771Y003932D01*
X013732Y004031D02*
X014059Y004031D01*
X014002Y004130D02*
X013903Y004130D01*
X013596Y003435D02*
X013337Y003285D01*
X013112Y003673D01*
X013371Y003823D01*
X013596Y003435D01*
X013508Y003384D02*
X013280Y003384D01*
X013222Y003483D02*
X013568Y003483D01*
X013511Y003582D02*
X013165Y003582D01*
X013126Y003681D02*
X013453Y003681D01*
X013396Y003780D02*
X013297Y003780D01*
X011713Y003603D02*
X011420Y003546D01*
X011335Y003987D01*
X011628Y004044D01*
X011713Y003603D01*
X011705Y003645D02*
X011401Y003645D01*
X011382Y003744D02*
X011686Y003744D01*
X011667Y003843D02*
X011363Y003843D01*
X011344Y003942D02*
X011648Y003942D01*
X011629Y004041D02*
X011613Y004041D01*
X011026Y003471D02*
X010733Y003414D01*
X010648Y003855D01*
X010941Y003912D01*
X011026Y003471D01*
X011018Y003513D02*
X010714Y003513D01*
X010695Y003612D02*
X010999Y003612D01*
X010980Y003711D02*
X010676Y003711D01*
X010657Y003810D02*
X010961Y003810D01*
X010942Y003909D02*
X010926Y003909D01*
X005148Y005349D02*
X004951Y005576D01*
X005290Y005869D01*
X005487Y005642D01*
X005148Y005349D01*
X005062Y005448D02*
X005263Y005448D01*
X005377Y005547D02*
X004976Y005547D01*
X005032Y005646D02*
X005484Y005646D01*
X005398Y005745D02*
X005147Y005745D01*
X005261Y005844D02*
X005312Y005844D01*
X004690Y005878D02*
X004493Y006105D01*
X004832Y006398D01*
X005029Y006171D01*
X004690Y005878D01*
X004604Y005977D02*
X004805Y005977D01*
X004919Y006076D02*
X004518Y006076D01*
X004574Y006175D02*
X005026Y006175D01*
X004940Y006274D02*
X004689Y006274D01*
X004803Y006373D02*
X004854Y006373D01*
X003704Y007472D02*
X003606Y007755D01*
X004030Y007902D01*
X004128Y007619D01*
X003704Y007472D01*
X003670Y007571D02*
X003990Y007571D01*
X004110Y007670D02*
X003635Y007670D01*
X003646Y007769D02*
X004076Y007769D01*
X004042Y007868D02*
X003932Y007868D01*
X003475Y008134D02*
X003377Y008417D01*
X003801Y008564D01*
X003899Y008281D01*
X003475Y008134D01*
X003441Y008233D02*
X003761Y008233D01*
X003881Y008332D02*
X003406Y008332D01*
X003417Y008431D02*
X003847Y008431D01*
X003813Y008530D02*
X003703Y008530D01*
X002289Y009662D02*
X002289Y009962D01*
X002739Y009962D01*
X002739Y009662D01*
X002289Y009662D01*
X002289Y009761D02*
X002739Y009761D01*
X002739Y009860D02*
X002289Y009860D01*
X002289Y009959D02*
X002739Y009959D01*
X002289Y010362D02*
X002289Y010662D01*
X002739Y010662D01*
X002739Y010362D01*
X002289Y010362D01*
X002289Y010461D02*
X002739Y010461D01*
X002739Y010560D02*
X002289Y010560D01*
X002289Y010659D02*
X002739Y010659D01*
X003377Y011908D02*
X003475Y012191D01*
X003899Y012044D01*
X003801Y011761D01*
X003377Y011908D01*
X003515Y011860D02*
X003835Y011860D01*
X003870Y011959D02*
X003395Y011959D01*
X003429Y012058D02*
X003859Y012058D01*
X003573Y012157D02*
X003463Y012157D01*
X003606Y012569D02*
X003704Y012852D01*
X004128Y012705D01*
X004030Y012422D01*
X003606Y012569D01*
X003744Y012521D02*
X004064Y012521D01*
X004099Y012620D02*
X003624Y012620D01*
X003658Y012719D02*
X004088Y012719D01*
X003802Y012818D02*
X003692Y012818D01*
X004493Y014219D02*
X004690Y014446D01*
X005029Y014153D01*
X004832Y013926D01*
X004493Y014219D01*
X004717Y014025D02*
X004918Y014025D01*
X005004Y014124D02*
X004603Y014124D01*
X004496Y014223D02*
X004948Y014223D01*
X004833Y014322D02*
X004582Y014322D01*
X004668Y014421D02*
X004719Y014421D01*
X004951Y014748D02*
X005148Y014975D01*
X005487Y014682D01*
X005290Y014455D01*
X004951Y014748D01*
X005175Y014554D02*
X005376Y014554D01*
X005462Y014653D02*
X005061Y014653D01*
X004954Y014752D02*
X005406Y014752D01*
X005291Y014851D02*
X005040Y014851D01*
X005126Y014950D02*
X005177Y014950D01*
X005683Y016539D02*
X005942Y016689D01*
X006167Y016301D01*
X005908Y016151D01*
X005683Y016539D01*
X005851Y016250D02*
X006079Y016250D01*
X006139Y016349D02*
X005793Y016349D01*
X005736Y016448D02*
X006082Y016448D01*
X006024Y016547D02*
X005697Y016547D01*
X005868Y016646D02*
X005967Y016646D01*
X006289Y016889D02*
X006548Y017039D01*
X006773Y016651D01*
X006514Y016501D01*
X006289Y016889D01*
X006457Y016600D02*
X006685Y016600D01*
X006745Y016699D02*
X006399Y016699D01*
X006342Y016798D02*
X006688Y016798D01*
X006630Y016897D02*
X006303Y016897D01*
X006474Y016996D02*
X006573Y016996D01*
M02*
