G75*
%MOIN*%
%OFA0B0*%
%FSLAX24Y24*%
%IPPOS*%
%LPD*%
%AMOC8*
5,1,8,0,0,1.08239X$1,22.5*
%
%ADD10R,0.0118X0.0472*%
%ADD11R,0.0472X0.0118*%
%ADD12R,0.0472X0.0120*%
%ADD13R,0.0800X0.0800*%
%ADD14R,0.0984X0.0295*%
%ADD15C,0.0088*%
%ADD16R,0.0472X0.0217*%
%ADD17C,0.0315*%
%ADD18R,0.0700X0.0550*%
%ADD19R,0.0400X0.0700*%
%ADD20R,0.0780X0.0220*%
%ADD21R,0.1575X0.1575*%
%ADD22R,0.0500X0.0250*%
%ADD23R,0.0900X0.0960*%
D10*
X009441Y009413D03*
X009631Y009413D03*
X009831Y009413D03*
X010031Y009413D03*
X010231Y009413D03*
X010421Y009413D03*
X010421Y011145D03*
X010231Y011145D03*
X010031Y011145D03*
X009831Y011145D03*
X009631Y011145D03*
X009441Y011145D03*
D11*
X009065Y010769D03*
X009065Y010579D03*
X009065Y010379D03*
X009065Y010179D03*
X010797Y010179D03*
X010797Y009979D03*
X010797Y009789D03*
X010797Y010379D03*
X010797Y010579D03*
X010797Y010769D03*
D12*
X009065Y009979D03*
X009065Y009789D03*
D13*
X009931Y010279D03*
D14*
X005317Y010261D03*
X005317Y010761D03*
X005317Y011261D03*
X003817Y011261D03*
X003817Y010761D03*
X003817Y010261D03*
X003817Y009761D03*
X003817Y009261D03*
X005317Y009261D03*
X005317Y009761D03*
D15*
X008237Y012192D02*
X008237Y012454D01*
X008499Y012454D01*
X008499Y012192D01*
X008237Y012192D01*
X008237Y012279D02*
X008499Y012279D01*
X008499Y012366D02*
X008237Y012366D01*
X008237Y012453D02*
X008499Y012453D01*
X008237Y012792D02*
X008237Y013054D01*
X008499Y013054D01*
X008499Y012792D01*
X008237Y012792D01*
X008237Y012879D02*
X008499Y012879D01*
X008499Y012966D02*
X008237Y012966D01*
X008237Y013053D02*
X008499Y013053D01*
X010008Y013054D02*
X010008Y012792D01*
X010008Y013054D02*
X010270Y013054D01*
X010270Y012792D01*
X010008Y012792D01*
X010008Y012879D02*
X010270Y012879D01*
X010270Y012966D02*
X010008Y012966D01*
X010008Y013053D02*
X010270Y013053D01*
X010599Y013054D02*
X010599Y012792D01*
X010599Y013054D02*
X010861Y013054D01*
X010861Y012792D01*
X010599Y012792D01*
X010599Y012879D02*
X010861Y012879D01*
X010861Y012966D02*
X010599Y012966D01*
X010599Y013053D02*
X010861Y013053D01*
X011189Y013054D02*
X011189Y012792D01*
X011189Y013054D02*
X011451Y013054D01*
X011451Y012792D01*
X011189Y012792D01*
X011189Y012879D02*
X011451Y012879D01*
X011451Y012966D02*
X011189Y012966D01*
X011189Y013053D02*
X011451Y013053D01*
X011189Y012454D02*
X011189Y012192D01*
X011189Y012454D02*
X011451Y012454D01*
X011451Y012192D01*
X011189Y012192D01*
X011189Y012279D02*
X011451Y012279D01*
X011451Y012366D02*
X011189Y012366D01*
X011189Y012453D02*
X011451Y012453D01*
X010599Y012454D02*
X010599Y012192D01*
X010599Y012454D02*
X010861Y012454D01*
X010861Y012192D01*
X010599Y012192D01*
X010599Y012279D02*
X010861Y012279D01*
X010861Y012366D02*
X010599Y012366D01*
X010599Y012453D02*
X010861Y012453D01*
X010008Y012454D02*
X010008Y012192D01*
X010008Y012454D02*
X010270Y012454D01*
X010270Y012192D01*
X010008Y012192D01*
X010008Y012279D02*
X010270Y012279D01*
X010270Y012366D02*
X010008Y012366D01*
X010008Y012453D02*
X010270Y012453D01*
X011952Y015180D02*
X012214Y015180D01*
X012214Y014918D01*
X011952Y014918D01*
X011952Y015180D01*
X011952Y015005D02*
X012214Y015005D01*
X012214Y015092D02*
X011952Y015092D01*
X011952Y015179D02*
X012214Y015179D01*
X012552Y015180D02*
X012814Y015180D01*
X012814Y014918D01*
X012552Y014918D01*
X012552Y015180D01*
X012552Y015005D02*
X012814Y015005D01*
X012814Y015092D02*
X012552Y015092D01*
X012552Y015179D02*
X012814Y015179D01*
X013452Y015018D02*
X013714Y015018D01*
X013452Y015018D02*
X013452Y015280D01*
X013714Y015280D01*
X013714Y015018D01*
X013714Y015105D02*
X013452Y015105D01*
X013452Y015192D02*
X013714Y015192D01*
X013714Y015279D02*
X013452Y015279D01*
X013452Y015780D02*
X013714Y015780D01*
X013714Y015518D01*
X013452Y015518D01*
X013452Y015780D01*
X013452Y015605D02*
X013714Y015605D01*
X013714Y015692D02*
X013452Y015692D01*
X013452Y015779D02*
X013714Y015779D01*
X013714Y016118D02*
X013452Y016118D01*
X013452Y016380D01*
X013714Y016380D01*
X013714Y016118D01*
X013714Y016205D02*
X013452Y016205D01*
X013452Y016292D02*
X013714Y016292D01*
X013714Y016379D02*
X013452Y016379D01*
X014052Y016118D02*
X014314Y016118D01*
X014052Y016118D02*
X014052Y016380D01*
X014314Y016380D01*
X014314Y016118D01*
X014314Y016205D02*
X014052Y016205D01*
X014052Y016292D02*
X014314Y016292D01*
X014314Y016379D02*
X014052Y016379D01*
X014052Y015780D02*
X014314Y015780D01*
X014314Y015518D01*
X014052Y015518D01*
X014052Y015780D01*
X014052Y015605D02*
X014314Y015605D01*
X014314Y015692D02*
X014052Y015692D01*
X014052Y015779D02*
X014314Y015779D01*
X014552Y015318D02*
X014814Y015318D01*
X014552Y015318D02*
X014552Y015580D01*
X014814Y015580D01*
X014814Y015318D01*
X014814Y015405D02*
X014552Y015405D01*
X014552Y015492D02*
X014814Y015492D01*
X014814Y015579D02*
X014552Y015579D01*
X014314Y015018D02*
X014052Y015018D01*
X014052Y015280D01*
X014314Y015280D01*
X014314Y015018D01*
X014314Y015105D02*
X014052Y015105D01*
X014052Y015192D02*
X014314Y015192D01*
X014314Y015279D02*
X014052Y015279D01*
X014052Y014780D02*
X014314Y014780D01*
X014314Y014518D01*
X014052Y014518D01*
X014052Y014780D01*
X014052Y014605D02*
X014314Y014605D01*
X014314Y014692D02*
X014052Y014692D01*
X014052Y014779D02*
X014314Y014779D01*
X014552Y014980D02*
X014814Y014980D01*
X014814Y014718D01*
X014552Y014718D01*
X014552Y014980D01*
X014552Y014805D02*
X014814Y014805D01*
X014814Y014892D02*
X014552Y014892D01*
X014552Y014979D02*
X014814Y014979D01*
X015152Y014980D02*
X015414Y014980D01*
X015414Y014718D01*
X015152Y014718D01*
X015152Y014980D01*
X015152Y014805D02*
X015414Y014805D01*
X015414Y014892D02*
X015152Y014892D01*
X015152Y014979D02*
X015414Y014979D01*
X015414Y015318D02*
X015152Y015318D01*
X015152Y015580D01*
X015414Y015580D01*
X015414Y015318D01*
X015414Y015405D02*
X015152Y015405D01*
X015152Y015492D02*
X015414Y015492D01*
X015414Y015579D02*
X015152Y015579D01*
X015252Y016380D02*
X015514Y016380D01*
X015514Y016118D01*
X015252Y016118D01*
X015252Y016380D01*
X015252Y016205D02*
X015514Y016205D01*
X015514Y016292D02*
X015252Y016292D01*
X015252Y016379D02*
X015514Y016379D01*
X014914Y016380D02*
X014652Y016380D01*
X014914Y016380D02*
X014914Y016118D01*
X014652Y016118D01*
X014652Y016380D01*
X014652Y016205D02*
X014914Y016205D01*
X014914Y016292D02*
X014652Y016292D01*
X014652Y016379D02*
X014914Y016379D01*
X013714Y014780D02*
X013452Y014780D01*
X013714Y014780D02*
X013714Y014518D01*
X013452Y014518D01*
X013452Y014780D01*
X013452Y014605D02*
X013714Y014605D01*
X013714Y014692D02*
X013452Y014692D01*
X013452Y014779D02*
X013714Y014779D01*
X011058Y008034D02*
X011058Y007772D01*
X010796Y007772D01*
X010796Y008034D01*
X011058Y008034D01*
X011058Y007859D02*
X010796Y007859D01*
X010796Y007946D02*
X011058Y007946D01*
X011058Y008033D02*
X010796Y008033D01*
X010467Y008034D02*
X010467Y007772D01*
X010205Y007772D01*
X010205Y008034D01*
X010467Y008034D01*
X010467Y007859D02*
X010205Y007859D01*
X010205Y007946D02*
X010467Y007946D01*
X010467Y008033D02*
X010205Y008033D01*
X010467Y007434D02*
X010467Y007172D01*
X010205Y007172D01*
X010205Y007434D01*
X010467Y007434D01*
X010467Y007259D02*
X010205Y007259D01*
X010205Y007346D02*
X010467Y007346D01*
X010467Y007433D02*
X010205Y007433D01*
X011058Y007434D02*
X011058Y007172D01*
X010796Y007172D01*
X010796Y007434D01*
X011058Y007434D01*
X011058Y007259D02*
X010796Y007259D01*
X010796Y007346D02*
X011058Y007346D01*
X011058Y007433D02*
X010796Y007433D01*
X009581Y007434D02*
X009581Y007172D01*
X009319Y007172D01*
X009319Y007434D01*
X009581Y007434D01*
X009581Y007259D02*
X009319Y007259D01*
X009319Y007346D02*
X009581Y007346D01*
X009581Y007433D02*
X009319Y007433D01*
X009581Y007772D02*
X009581Y008034D01*
X009581Y007772D02*
X009319Y007772D01*
X009319Y008034D01*
X009581Y008034D01*
X009581Y007859D02*
X009319Y007859D01*
X009319Y007946D02*
X009581Y007946D01*
X009581Y008033D02*
X009319Y008033D01*
X013185Y006471D02*
X013447Y006471D01*
X013185Y006471D02*
X013185Y006733D01*
X013447Y006733D01*
X013447Y006471D01*
X013447Y006558D02*
X013185Y006558D01*
X013185Y006645D02*
X013447Y006645D01*
X013447Y006732D02*
X013185Y006732D01*
X013785Y006471D02*
X014047Y006471D01*
X013785Y006471D02*
X013785Y006733D01*
X014047Y006733D01*
X014047Y006471D01*
X014047Y006558D02*
X013785Y006558D01*
X013785Y006645D02*
X014047Y006645D01*
X014047Y006732D02*
X013785Y006732D01*
D16*
X013761Y012981D03*
X013761Y013729D03*
X014785Y013729D03*
X014785Y013355D03*
X014785Y012981D03*
D17*
X012707Y015865D03*
X012058Y015865D03*
X012058Y016833D03*
X012707Y016833D03*
D18*
X005081Y016524D03*
X005081Y014824D03*
X005081Y005500D03*
X005081Y003800D03*
D19*
X004231Y003250D03*
X004231Y006050D03*
X004231Y014274D03*
X004231Y017074D03*
D20*
X012665Y010881D03*
X012665Y010381D03*
X012665Y009881D03*
X012665Y009381D03*
X012665Y008881D03*
X012665Y008381D03*
X012665Y007881D03*
X012665Y007381D03*
X014605Y007381D03*
X014605Y007881D03*
X014605Y008381D03*
X014605Y008881D03*
X014605Y009381D03*
X014605Y009881D03*
X014605Y010381D03*
X014605Y010881D03*
D21*
X009943Y015969D03*
X009943Y004355D03*
D22*
X009238Y012500D03*
X009238Y012824D03*
D23*
X009238Y012662D03*
M02*
