G75*
%MOIN*%
%OFA0B0*%
%FSLAX24Y24*%
%IPPOS*%
%LPD*%
%AMOC8*
5,1,8,0,0,1.08239X$1,22.5*
%
%ADD10C,0.0000*%
D10*
X003998Y002563D02*
X003917Y002707D01*
X003885Y002778D01*
X003856Y002850D01*
X003833Y002920D01*
X003815Y002990D01*
X003801Y003060D01*
X003791Y003128D01*
X003786Y003196D01*
X003784Y003264D01*
X003791Y003396D01*
X003810Y003526D01*
X003861Y003780D01*
X003918Y004164D01*
X003936Y004552D01*
X003913Y004939D01*
X003850Y005322D01*
X003748Y005696D01*
X003608Y006058D01*
X003432Y006403D01*
X003221Y006729D01*
X002978Y007031D01*
X002704Y007306D01*
X002404Y007552D01*
X002080Y007765D01*
X001736Y007944D01*
X001375Y008087D01*
X001129Y008169D01*
X001007Y008218D01*
X000889Y008278D01*
X000832Y008313D01*
X000775Y008352D01*
X000721Y008394D01*
X000668Y008441D01*
X000616Y008492D01*
X000567Y008548D01*
X000519Y008608D01*
X000473Y008672D01*
X000389Y008814D01*
X000315Y008972D01*
X000250Y009145D01*
X000197Y009331D01*
X000155Y009529D01*
X000124Y009735D01*
X000106Y009947D01*
X000100Y010162D01*
X000106Y010377D01*
X000124Y010589D01*
X000155Y010795D01*
X000197Y010993D01*
X000250Y011180D01*
X000315Y011353D01*
X000389Y011511D01*
X000473Y011652D01*
X000519Y011717D01*
X000567Y011777D01*
X000616Y011832D01*
X000668Y011883D01*
X000721Y011930D01*
X000775Y011973D01*
X000832Y012011D01*
X000889Y012046D01*
X001007Y012106D01*
X001129Y012155D01*
X001375Y012238D01*
X001736Y012380D01*
X002080Y012559D01*
X002404Y012772D01*
X002704Y013018D01*
X002978Y013293D01*
X003221Y013595D01*
X003432Y013921D01*
X003608Y014266D01*
X003748Y014628D01*
X003850Y015003D01*
X003913Y015385D01*
X003936Y015773D01*
X003918Y016160D01*
X003861Y016544D01*
X003810Y016799D01*
X003791Y016928D01*
X003784Y017061D01*
X003786Y017128D01*
X003791Y017196D01*
X003801Y017265D01*
X003815Y017334D01*
X003833Y017404D01*
X003856Y017475D01*
X003885Y017546D01*
X003917Y017618D01*
X003998Y017761D01*
X004097Y017905D01*
X004215Y018047D01*
X004350Y018187D01*
X004500Y018322D01*
X004664Y018451D01*
X004838Y018573D01*
X005021Y018686D01*
X005211Y018788D01*
X005403Y018878D01*
X005597Y018955D01*
X005789Y019018D01*
X005977Y019065D01*
X006160Y019096D01*
X006334Y019110D01*
X006499Y019108D01*
X006577Y019100D01*
X006653Y019089D01*
X006725Y019074D01*
X006795Y019055D01*
X006863Y019032D01*
X006927Y019006D01*
X006989Y018977D01*
X007048Y018945D01*
X007158Y018872D01*
X007262Y018792D01*
X007456Y018619D01*
X007760Y018378D01*
X008087Y018170D01*
X008434Y017996D01*
X008797Y017859D01*
X009172Y017760D01*
X009555Y017700D01*
X009943Y017680D01*
X010330Y017700D01*
X010713Y017760D01*
X011088Y017859D01*
X011451Y017996D01*
X011798Y018170D01*
X012125Y018378D01*
X012429Y018619D01*
X012623Y018792D01*
X012727Y018872D01*
X012837Y018945D01*
X012896Y018977D01*
X012958Y019006D01*
X013022Y019032D01*
X013090Y019055D01*
X013160Y019074D01*
X013232Y019089D01*
X013308Y019100D01*
X013387Y019108D01*
X013551Y019110D01*
X013725Y019096D01*
X013908Y019065D01*
X014096Y019018D01*
X014288Y018955D01*
X014482Y018878D01*
X014675Y018788D01*
X014864Y018686D01*
X015047Y018573D01*
X015221Y018451D01*
X015385Y018322D01*
X015535Y018187D01*
X015670Y018047D01*
X015788Y017905D01*
X015887Y017761D01*
X015968Y017618D01*
X016001Y017546D01*
X016029Y017475D01*
X016052Y017404D01*
X016070Y017334D01*
X016084Y017265D01*
X016094Y017196D01*
X016099Y017128D01*
X016101Y017061D01*
X016094Y016928D01*
X016076Y016799D01*
X016024Y016544D01*
X015967Y016160D01*
X015949Y015773D01*
X015972Y015385D01*
X016035Y015003D01*
X016137Y014628D01*
X016277Y014266D01*
X016453Y013921D01*
X016664Y013595D01*
X016907Y013293D01*
X017181Y013018D01*
X017481Y012772D01*
X017805Y012559D01*
X018149Y012380D01*
X018510Y012238D01*
X018756Y012155D01*
X018878Y012106D01*
X018996Y012046D01*
X019053Y012011D01*
X019110Y011973D01*
X019164Y011930D01*
X019218Y011883D01*
X019269Y011832D01*
X019318Y011777D01*
X019366Y011717D01*
X019412Y011652D01*
X019496Y011511D01*
X019570Y011353D01*
X019635Y011180D01*
X019688Y010993D01*
X019730Y010795D01*
X019761Y010589D01*
X019779Y010377D01*
X019785Y010162D01*
X019779Y009947D01*
X019761Y009735D01*
X019730Y009529D01*
X019688Y009331D01*
X019635Y009145D01*
X019570Y008972D01*
X019496Y008814D01*
X019412Y008672D01*
X019366Y008608D01*
X019318Y008548D01*
X019269Y008492D01*
X019218Y008441D01*
X019164Y008394D01*
X019110Y008352D01*
X019053Y008313D01*
X018996Y008278D01*
X018878Y008218D01*
X018756Y008169D01*
X018510Y008087D01*
X018149Y007944D01*
X017805Y007765D01*
X017481Y007552D01*
X017181Y007306D01*
X016907Y007031D01*
X016664Y006729D01*
X016453Y006403D01*
X016277Y006058D01*
X016137Y005696D01*
X016035Y005322D01*
X015972Y004939D01*
X015949Y004552D01*
X015967Y004164D01*
X016024Y003780D01*
X016076Y003526D01*
X016094Y003396D01*
X016101Y003264D01*
X016099Y003196D01*
X016094Y003128D01*
X016084Y003060D01*
X016070Y002990D01*
X016052Y002920D01*
X016029Y002850D01*
X016001Y002778D01*
X015968Y002707D01*
X015887Y002563D01*
X015788Y002419D01*
X015670Y002277D01*
X015535Y002138D01*
X015385Y002002D01*
X015221Y001873D01*
X015047Y001751D01*
X014864Y001638D01*
X014675Y001536D01*
X014482Y001446D01*
X014288Y001369D01*
X014096Y001307D01*
X013908Y001260D01*
X013725Y001229D01*
X013551Y001214D01*
X013387Y001217D01*
X013308Y001224D01*
X013232Y001235D01*
X013160Y001250D01*
X013090Y001269D01*
X013022Y001292D01*
X012958Y001318D01*
X012896Y001347D01*
X012837Y001380D01*
X012727Y001452D01*
X012623Y001533D01*
X012429Y001705D01*
X012125Y001946D01*
X011798Y002155D01*
X011451Y002329D01*
X011088Y002466D01*
X010713Y002565D01*
X010330Y002625D01*
X009943Y002645D01*
X009555Y002625D01*
X009172Y002565D01*
X008797Y002466D01*
X008434Y002329D01*
X008087Y002155D01*
X007760Y001946D01*
X007456Y001705D01*
X007262Y001533D01*
X007158Y001452D01*
X007048Y001380D01*
X006989Y001347D01*
X006927Y001318D01*
X006863Y001292D01*
X006795Y001269D01*
X006725Y001250D01*
X006653Y001235D01*
X006577Y001224D01*
X006499Y001217D01*
X006334Y001214D01*
X006160Y001229D01*
X005977Y001260D01*
X005789Y001307D01*
X005597Y001369D01*
X005403Y001446D01*
X005211Y001536D01*
X005021Y001638D01*
X004838Y001751D01*
X004664Y001873D01*
X004500Y002002D01*
X004350Y002138D01*
X004215Y002277D01*
X004097Y002419D01*
X003998Y002563D01*
X004982Y002662D02*
X004984Y002712D01*
X004990Y002762D01*
X005000Y002811D01*
X005014Y002859D01*
X005031Y002906D01*
X005052Y002951D01*
X005077Y002995D01*
X005105Y003036D01*
X005137Y003075D01*
X005171Y003112D01*
X005208Y003146D01*
X005248Y003176D01*
X005290Y003203D01*
X005334Y003227D01*
X005380Y003248D01*
X005427Y003264D01*
X005475Y003277D01*
X005525Y003286D01*
X005574Y003291D01*
X005625Y003292D01*
X005675Y003289D01*
X005724Y003282D01*
X005773Y003271D01*
X005821Y003256D01*
X005867Y003238D01*
X005912Y003216D01*
X005955Y003190D01*
X005996Y003161D01*
X006035Y003129D01*
X006071Y003094D01*
X006103Y003056D01*
X006133Y003016D01*
X006160Y002973D01*
X006183Y002929D01*
X006202Y002883D01*
X006218Y002835D01*
X006230Y002786D01*
X006238Y002737D01*
X006242Y002687D01*
X006242Y002637D01*
X006238Y002587D01*
X006230Y002538D01*
X006218Y002489D01*
X006202Y002441D01*
X006183Y002395D01*
X006160Y002351D01*
X006133Y002308D01*
X006103Y002268D01*
X006071Y002230D01*
X006035Y002195D01*
X005996Y002163D01*
X005955Y002134D01*
X005912Y002108D01*
X005867Y002086D01*
X005821Y002068D01*
X005773Y002053D01*
X005724Y002042D01*
X005675Y002035D01*
X005625Y002032D01*
X005574Y002033D01*
X005525Y002038D01*
X005475Y002047D01*
X005427Y002060D01*
X005380Y002076D01*
X005334Y002097D01*
X005290Y002121D01*
X005248Y002148D01*
X005208Y002178D01*
X005171Y002212D01*
X005137Y002249D01*
X005105Y002288D01*
X005077Y002329D01*
X005052Y002373D01*
X005031Y002418D01*
X005014Y002465D01*
X005000Y002513D01*
X004990Y002562D01*
X004984Y002612D01*
X004982Y002662D01*
X004244Y004198D02*
X004246Y004225D01*
X004252Y004251D01*
X004261Y004276D01*
X004274Y004299D01*
X004290Y004320D01*
X004309Y004339D01*
X004330Y004355D01*
X004353Y004368D01*
X004378Y004377D01*
X004404Y004383D01*
X004431Y004385D01*
X004458Y004383D01*
X004484Y004377D01*
X004509Y004368D01*
X004532Y004355D01*
X004553Y004339D01*
X004572Y004320D01*
X004588Y004299D01*
X004601Y004276D01*
X004610Y004251D01*
X004616Y004225D01*
X004618Y004198D01*
X004616Y004171D01*
X004610Y004145D01*
X004601Y004120D01*
X004588Y004097D01*
X004572Y004076D01*
X004553Y004057D01*
X004532Y004041D01*
X004509Y004028D01*
X004484Y004019D01*
X004458Y004013D01*
X004431Y004011D01*
X004404Y004013D01*
X004378Y004019D01*
X004353Y004028D01*
X004330Y004041D01*
X004309Y004057D01*
X004290Y004076D01*
X004274Y004097D01*
X004261Y004120D01*
X004252Y004145D01*
X004246Y004171D01*
X004244Y004198D01*
X004244Y005103D02*
X004246Y005130D01*
X004252Y005156D01*
X004261Y005181D01*
X004274Y005204D01*
X004290Y005225D01*
X004309Y005244D01*
X004330Y005260D01*
X004353Y005273D01*
X004378Y005282D01*
X004404Y005288D01*
X004431Y005290D01*
X004458Y005288D01*
X004484Y005282D01*
X004509Y005273D01*
X004532Y005260D01*
X004553Y005244D01*
X004572Y005225D01*
X004588Y005204D01*
X004601Y005181D01*
X004610Y005156D01*
X004616Y005130D01*
X004618Y005103D01*
X004616Y005076D01*
X004610Y005050D01*
X004601Y005025D01*
X004588Y005002D01*
X004572Y004981D01*
X004553Y004962D01*
X004532Y004946D01*
X004509Y004933D01*
X004484Y004924D01*
X004458Y004918D01*
X004431Y004916D01*
X004404Y004918D01*
X004378Y004924D01*
X004353Y004933D01*
X004330Y004946D01*
X004309Y004962D01*
X004290Y004981D01*
X004274Y005002D01*
X004261Y005025D01*
X004252Y005050D01*
X004246Y005076D01*
X004244Y005103D01*
X000651Y010162D02*
X000653Y010212D01*
X000659Y010262D01*
X000669Y010311D01*
X000683Y010359D01*
X000700Y010406D01*
X000721Y010451D01*
X000746Y010495D01*
X000774Y010536D01*
X000806Y010575D01*
X000840Y010612D01*
X000877Y010646D01*
X000917Y010676D01*
X000959Y010703D01*
X001003Y010727D01*
X001049Y010748D01*
X001096Y010764D01*
X001144Y010777D01*
X001194Y010786D01*
X001243Y010791D01*
X001294Y010792D01*
X001344Y010789D01*
X001393Y010782D01*
X001442Y010771D01*
X001490Y010756D01*
X001536Y010738D01*
X001581Y010716D01*
X001624Y010690D01*
X001665Y010661D01*
X001704Y010629D01*
X001740Y010594D01*
X001772Y010556D01*
X001802Y010516D01*
X001829Y010473D01*
X001852Y010429D01*
X001871Y010383D01*
X001887Y010335D01*
X001899Y010286D01*
X001907Y010237D01*
X001911Y010187D01*
X001911Y010137D01*
X001907Y010087D01*
X001899Y010038D01*
X001887Y009989D01*
X001871Y009941D01*
X001852Y009895D01*
X001829Y009851D01*
X001802Y009808D01*
X001772Y009768D01*
X001740Y009730D01*
X001704Y009695D01*
X001665Y009663D01*
X001624Y009634D01*
X001581Y009608D01*
X001536Y009586D01*
X001490Y009568D01*
X001442Y009553D01*
X001393Y009542D01*
X001344Y009535D01*
X001294Y009532D01*
X001243Y009533D01*
X001194Y009538D01*
X001144Y009547D01*
X001096Y009560D01*
X001049Y009576D01*
X001003Y009597D01*
X000959Y009621D01*
X000917Y009648D01*
X000877Y009678D01*
X000840Y009712D01*
X000806Y009749D01*
X000774Y009788D01*
X000746Y009829D01*
X000721Y009873D01*
X000700Y009918D01*
X000683Y009965D01*
X000669Y010013D01*
X000659Y010062D01*
X000653Y010112D01*
X000651Y010162D01*
X004244Y015221D02*
X004246Y015248D01*
X004252Y015274D01*
X004261Y015299D01*
X004274Y015322D01*
X004290Y015343D01*
X004309Y015362D01*
X004330Y015378D01*
X004353Y015391D01*
X004378Y015400D01*
X004404Y015406D01*
X004431Y015408D01*
X004458Y015406D01*
X004484Y015400D01*
X004509Y015391D01*
X004532Y015378D01*
X004553Y015362D01*
X004572Y015343D01*
X004588Y015322D01*
X004601Y015299D01*
X004610Y015274D01*
X004616Y015248D01*
X004618Y015221D01*
X004616Y015194D01*
X004610Y015168D01*
X004601Y015143D01*
X004588Y015120D01*
X004572Y015099D01*
X004553Y015080D01*
X004532Y015064D01*
X004509Y015051D01*
X004484Y015042D01*
X004458Y015036D01*
X004431Y015034D01*
X004404Y015036D01*
X004378Y015042D01*
X004353Y015051D01*
X004330Y015064D01*
X004309Y015080D01*
X004290Y015099D01*
X004274Y015120D01*
X004261Y015143D01*
X004252Y015168D01*
X004246Y015194D01*
X004244Y015221D01*
X004244Y016127D02*
X004246Y016154D01*
X004252Y016180D01*
X004261Y016205D01*
X004274Y016228D01*
X004290Y016249D01*
X004309Y016268D01*
X004330Y016284D01*
X004353Y016297D01*
X004378Y016306D01*
X004404Y016312D01*
X004431Y016314D01*
X004458Y016312D01*
X004484Y016306D01*
X004509Y016297D01*
X004532Y016284D01*
X004553Y016268D01*
X004572Y016249D01*
X004588Y016228D01*
X004601Y016205D01*
X004610Y016180D01*
X004616Y016154D01*
X004618Y016127D01*
X004616Y016100D01*
X004610Y016074D01*
X004601Y016049D01*
X004588Y016026D01*
X004572Y016005D01*
X004553Y015986D01*
X004532Y015970D01*
X004509Y015957D01*
X004484Y015948D01*
X004458Y015942D01*
X004431Y015940D01*
X004404Y015942D01*
X004378Y015948D01*
X004353Y015957D01*
X004330Y015970D01*
X004309Y015986D01*
X004290Y016005D01*
X004274Y016026D01*
X004261Y016049D01*
X004252Y016074D01*
X004246Y016100D01*
X004244Y016127D01*
X004982Y017662D02*
X004984Y017712D01*
X004990Y017762D01*
X005000Y017811D01*
X005014Y017859D01*
X005031Y017906D01*
X005052Y017951D01*
X005077Y017995D01*
X005105Y018036D01*
X005137Y018075D01*
X005171Y018112D01*
X005208Y018146D01*
X005248Y018176D01*
X005290Y018203D01*
X005334Y018227D01*
X005380Y018248D01*
X005427Y018264D01*
X005475Y018277D01*
X005525Y018286D01*
X005574Y018291D01*
X005625Y018292D01*
X005675Y018289D01*
X005724Y018282D01*
X005773Y018271D01*
X005821Y018256D01*
X005867Y018238D01*
X005912Y018216D01*
X005955Y018190D01*
X005996Y018161D01*
X006035Y018129D01*
X006071Y018094D01*
X006103Y018056D01*
X006133Y018016D01*
X006160Y017973D01*
X006183Y017929D01*
X006202Y017883D01*
X006218Y017835D01*
X006230Y017786D01*
X006238Y017737D01*
X006242Y017687D01*
X006242Y017637D01*
X006238Y017587D01*
X006230Y017538D01*
X006218Y017489D01*
X006202Y017441D01*
X006183Y017395D01*
X006160Y017351D01*
X006133Y017308D01*
X006103Y017268D01*
X006071Y017230D01*
X006035Y017195D01*
X005996Y017163D01*
X005955Y017134D01*
X005912Y017108D01*
X005867Y017086D01*
X005821Y017068D01*
X005773Y017053D01*
X005724Y017042D01*
X005675Y017035D01*
X005625Y017032D01*
X005574Y017033D01*
X005525Y017038D01*
X005475Y017047D01*
X005427Y017060D01*
X005380Y017076D01*
X005334Y017097D01*
X005290Y017121D01*
X005248Y017148D01*
X005208Y017178D01*
X005171Y017212D01*
X005137Y017249D01*
X005105Y017288D01*
X005077Y017329D01*
X005052Y017373D01*
X005031Y017418D01*
X005014Y017465D01*
X005000Y017513D01*
X004990Y017562D01*
X004984Y017612D01*
X004982Y017662D01*
X013643Y017662D02*
X013645Y017712D01*
X013651Y017762D01*
X013661Y017811D01*
X013675Y017859D01*
X013692Y017906D01*
X013713Y017951D01*
X013738Y017995D01*
X013766Y018036D01*
X013798Y018075D01*
X013832Y018112D01*
X013869Y018146D01*
X013909Y018176D01*
X013951Y018203D01*
X013995Y018227D01*
X014041Y018248D01*
X014088Y018264D01*
X014136Y018277D01*
X014186Y018286D01*
X014235Y018291D01*
X014286Y018292D01*
X014336Y018289D01*
X014385Y018282D01*
X014434Y018271D01*
X014482Y018256D01*
X014528Y018238D01*
X014573Y018216D01*
X014616Y018190D01*
X014657Y018161D01*
X014696Y018129D01*
X014732Y018094D01*
X014764Y018056D01*
X014794Y018016D01*
X014821Y017973D01*
X014844Y017929D01*
X014863Y017883D01*
X014879Y017835D01*
X014891Y017786D01*
X014899Y017737D01*
X014903Y017687D01*
X014903Y017637D01*
X014899Y017587D01*
X014891Y017538D01*
X014879Y017489D01*
X014863Y017441D01*
X014844Y017395D01*
X014821Y017351D01*
X014794Y017308D01*
X014764Y017268D01*
X014732Y017230D01*
X014696Y017195D01*
X014657Y017163D01*
X014616Y017134D01*
X014573Y017108D01*
X014528Y017086D01*
X014482Y017068D01*
X014434Y017053D01*
X014385Y017042D01*
X014336Y017035D01*
X014286Y017032D01*
X014235Y017033D01*
X014186Y017038D01*
X014136Y017047D01*
X014088Y017060D01*
X014041Y017076D01*
X013995Y017097D01*
X013951Y017121D01*
X013909Y017148D01*
X013869Y017178D01*
X013832Y017212D01*
X013798Y017249D01*
X013766Y017288D01*
X013738Y017329D01*
X013713Y017373D01*
X013692Y017418D01*
X013675Y017465D01*
X013661Y017513D01*
X013651Y017562D01*
X013645Y017612D01*
X013643Y017662D01*
X017974Y010162D02*
X017976Y010212D01*
X017982Y010262D01*
X017992Y010311D01*
X018006Y010359D01*
X018023Y010406D01*
X018044Y010451D01*
X018069Y010495D01*
X018097Y010536D01*
X018129Y010575D01*
X018163Y010612D01*
X018200Y010646D01*
X018240Y010676D01*
X018282Y010703D01*
X018326Y010727D01*
X018372Y010748D01*
X018419Y010764D01*
X018467Y010777D01*
X018517Y010786D01*
X018566Y010791D01*
X018617Y010792D01*
X018667Y010789D01*
X018716Y010782D01*
X018765Y010771D01*
X018813Y010756D01*
X018859Y010738D01*
X018904Y010716D01*
X018947Y010690D01*
X018988Y010661D01*
X019027Y010629D01*
X019063Y010594D01*
X019095Y010556D01*
X019125Y010516D01*
X019152Y010473D01*
X019175Y010429D01*
X019194Y010383D01*
X019210Y010335D01*
X019222Y010286D01*
X019230Y010237D01*
X019234Y010187D01*
X019234Y010137D01*
X019230Y010087D01*
X019222Y010038D01*
X019210Y009989D01*
X019194Y009941D01*
X019175Y009895D01*
X019152Y009851D01*
X019125Y009808D01*
X019095Y009768D01*
X019063Y009730D01*
X019027Y009695D01*
X018988Y009663D01*
X018947Y009634D01*
X018904Y009608D01*
X018859Y009586D01*
X018813Y009568D01*
X018765Y009553D01*
X018716Y009542D01*
X018667Y009535D01*
X018617Y009532D01*
X018566Y009533D01*
X018517Y009538D01*
X018467Y009547D01*
X018419Y009560D01*
X018372Y009576D01*
X018326Y009597D01*
X018282Y009621D01*
X018240Y009648D01*
X018200Y009678D01*
X018163Y009712D01*
X018129Y009749D01*
X018097Y009788D01*
X018069Y009829D01*
X018044Y009873D01*
X018023Y009918D01*
X018006Y009965D01*
X017992Y010013D01*
X017982Y010062D01*
X017976Y010112D01*
X017974Y010162D01*
X013643Y002662D02*
X013645Y002712D01*
X013651Y002762D01*
X013661Y002811D01*
X013675Y002859D01*
X013692Y002906D01*
X013713Y002951D01*
X013738Y002995D01*
X013766Y003036D01*
X013798Y003075D01*
X013832Y003112D01*
X013869Y003146D01*
X013909Y003176D01*
X013951Y003203D01*
X013995Y003227D01*
X014041Y003248D01*
X014088Y003264D01*
X014136Y003277D01*
X014186Y003286D01*
X014235Y003291D01*
X014286Y003292D01*
X014336Y003289D01*
X014385Y003282D01*
X014434Y003271D01*
X014482Y003256D01*
X014528Y003238D01*
X014573Y003216D01*
X014616Y003190D01*
X014657Y003161D01*
X014696Y003129D01*
X014732Y003094D01*
X014764Y003056D01*
X014794Y003016D01*
X014821Y002973D01*
X014844Y002929D01*
X014863Y002883D01*
X014879Y002835D01*
X014891Y002786D01*
X014899Y002737D01*
X014903Y002687D01*
X014903Y002637D01*
X014899Y002587D01*
X014891Y002538D01*
X014879Y002489D01*
X014863Y002441D01*
X014844Y002395D01*
X014821Y002351D01*
X014794Y002308D01*
X014764Y002268D01*
X014732Y002230D01*
X014696Y002195D01*
X014657Y002163D01*
X014616Y002134D01*
X014573Y002108D01*
X014528Y002086D01*
X014482Y002068D01*
X014434Y002053D01*
X014385Y002042D01*
X014336Y002035D01*
X014286Y002032D01*
X014235Y002033D01*
X014186Y002038D01*
X014136Y002047D01*
X014088Y002060D01*
X014041Y002076D01*
X013995Y002097D01*
X013951Y002121D01*
X013909Y002148D01*
X013869Y002178D01*
X013832Y002212D01*
X013798Y002249D01*
X013766Y002288D01*
X013738Y002329D01*
X013713Y002373D01*
X013692Y002418D01*
X013675Y002465D01*
X013661Y002513D01*
X013651Y002562D01*
X013645Y002612D01*
X013643Y002662D01*
M02*
