G75*
%MOIN*%
%OFA0B0*%
%FSLAX24Y24*%
%IPPOS*%
%LPD*%
%AMOC8*
5,1,8,0,0,1.08239X$1,22.5*
%
%ADD10C,0.0414*%
%ADD11C,0.1300*%
%ADD12C,0.0110*%
%ADD13OC8,0.0560*%
%ADD14C,0.0560*%
%ADD15C,0.0050*%
D10*
X004431Y004198D03*
X004431Y005103D03*
X004431Y015221D03*
X004431Y016127D03*
D11*
X005612Y017662D03*
X001281Y010162D03*
X005612Y002662D03*
X014273Y002662D03*
X018604Y010162D03*
X014273Y017662D03*
D12*
X013616Y016895D02*
X013332Y017060D01*
X013616Y016895D02*
X013376Y016480D01*
X013092Y016645D01*
X013332Y017060D01*
X013439Y016589D02*
X013188Y016589D01*
X013123Y016698D02*
X013502Y016698D01*
X013565Y016807D02*
X013186Y016807D01*
X013249Y016916D02*
X013580Y016916D01*
X013392Y017025D02*
X013312Y017025D01*
X013938Y016710D02*
X014222Y016545D01*
X013982Y016130D01*
X013698Y016295D01*
X013938Y016710D01*
X014045Y016239D02*
X013794Y016239D01*
X013729Y016348D02*
X014108Y016348D01*
X014171Y016457D02*
X013792Y016457D01*
X013855Y016566D02*
X014186Y016566D01*
X013998Y016675D02*
X013918Y016675D01*
X014739Y014996D02*
X014955Y014747D01*
X014593Y014434D01*
X014377Y014683D01*
X014739Y014996D01*
X014719Y014543D02*
X014498Y014543D01*
X014404Y014652D02*
X014845Y014652D01*
X014943Y014761D02*
X014467Y014761D01*
X014593Y014870D02*
X014848Y014870D01*
X014754Y014979D02*
X014719Y014979D01*
X015197Y014467D02*
X015413Y014218D01*
X015051Y013905D01*
X014835Y014154D01*
X015197Y014467D01*
X015177Y014014D02*
X014956Y014014D01*
X014862Y014123D02*
X015303Y014123D01*
X015401Y014232D02*
X014925Y014232D01*
X015051Y014341D02*
X015306Y014341D01*
X015212Y014450D02*
X015177Y014450D01*
X016190Y012871D02*
X016298Y012560D01*
X015846Y012403D01*
X015738Y012714D01*
X016190Y012871D01*
X016160Y012512D02*
X015808Y012512D01*
X015770Y012621D02*
X016277Y012621D01*
X016239Y012730D02*
X015784Y012730D01*
X016098Y012839D02*
X016201Y012839D01*
X016419Y012210D02*
X016527Y011899D01*
X016075Y011742D01*
X015967Y012053D01*
X016419Y012210D01*
X016389Y011851D02*
X016037Y011851D01*
X015999Y011960D02*
X016506Y011960D01*
X016468Y012069D02*
X016013Y012069D01*
X016327Y012178D02*
X016430Y012178D01*
X017611Y010677D02*
X017611Y010347D01*
X017131Y010347D01*
X017131Y010677D01*
X017611Y010677D01*
X017611Y010456D02*
X017131Y010456D01*
X017131Y010565D02*
X017611Y010565D01*
X017611Y010674D02*
X017131Y010674D01*
X017611Y009977D02*
X017611Y009647D01*
X017131Y009647D01*
X017131Y009977D01*
X017611Y009977D01*
X017611Y009756D02*
X017131Y009756D01*
X017131Y009865D02*
X017611Y009865D01*
X017611Y009974D02*
X017131Y009974D01*
X016527Y008426D02*
X016419Y008115D01*
X015967Y008272D01*
X016075Y008583D01*
X016527Y008426D01*
X016457Y008224D02*
X016105Y008224D01*
X015988Y008333D02*
X016495Y008333D01*
X016481Y008442D02*
X016026Y008442D01*
X016064Y008551D02*
X016167Y008551D01*
X016298Y007764D02*
X016190Y007453D01*
X015738Y007610D01*
X015846Y007921D01*
X016298Y007764D01*
X016228Y007562D02*
X015876Y007562D01*
X015759Y007671D02*
X016266Y007671D01*
X016252Y007780D02*
X015797Y007780D01*
X015835Y007889D02*
X015938Y007889D01*
X015413Y006106D02*
X015197Y005857D01*
X014835Y006170D01*
X015051Y006419D01*
X015413Y006106D01*
X015292Y005966D02*
X015071Y005966D01*
X014945Y006075D02*
X015386Y006075D01*
X015323Y006184D02*
X014847Y006184D01*
X014942Y006293D02*
X015197Y006293D01*
X015071Y006402D02*
X015036Y006402D01*
X014955Y005577D02*
X014739Y005328D01*
X014377Y005641D01*
X014593Y005890D01*
X014955Y005577D01*
X014834Y005437D02*
X014613Y005437D01*
X014487Y005546D02*
X014928Y005546D01*
X014865Y005655D02*
X014389Y005655D01*
X014484Y005764D02*
X014739Y005764D01*
X014613Y005873D02*
X014578Y005873D01*
X012984Y005923D02*
X012700Y005758D01*
X012460Y006173D01*
X012744Y006338D01*
X012984Y005923D01*
X012888Y005867D02*
X012637Y005867D01*
X012574Y005976D02*
X012953Y005976D01*
X012890Y006085D02*
X012511Y006085D01*
X012496Y006194D02*
X012827Y006194D01*
X012764Y006303D02*
X012684Y006303D01*
X012378Y005573D02*
X012094Y005408D01*
X011854Y005823D01*
X012138Y005988D01*
X012378Y005573D01*
X012282Y005517D02*
X012031Y005517D01*
X011968Y005626D02*
X012347Y005626D01*
X012284Y005735D02*
X011905Y005735D01*
X011890Y005844D02*
X012221Y005844D01*
X012158Y005953D02*
X012078Y005953D01*
X010458Y005633D02*
X010128Y005633D01*
X010128Y006113D01*
X010458Y006113D01*
X010458Y005633D01*
X010458Y005742D02*
X010128Y005742D01*
X010128Y005851D02*
X010458Y005851D01*
X010458Y005960D02*
X010128Y005960D01*
X010128Y006069D02*
X010458Y006069D01*
X009758Y005633D02*
X009428Y005633D01*
X009428Y006113D01*
X009758Y006113D01*
X009758Y005633D01*
X009758Y005742D02*
X009428Y005742D01*
X009428Y005851D02*
X009758Y005851D01*
X009758Y005960D02*
X009428Y005960D01*
X009428Y006069D02*
X009758Y006069D01*
X009030Y007553D02*
X008746Y007718D01*
X008986Y008133D01*
X009270Y007968D01*
X009030Y007553D01*
X009093Y007662D02*
X008842Y007662D01*
X008777Y007771D02*
X009156Y007771D01*
X009219Y007880D02*
X008840Y007880D01*
X008903Y007989D02*
X009234Y007989D01*
X009046Y008098D02*
X008966Y008098D01*
X008423Y007903D02*
X008139Y008068D01*
X008379Y008483D01*
X008663Y008318D01*
X008423Y007903D01*
X008486Y008012D02*
X008235Y008012D01*
X008170Y008121D02*
X008549Y008121D01*
X008612Y008230D02*
X008233Y008230D01*
X008296Y008339D02*
X008627Y008339D01*
X008439Y008448D02*
X008359Y008448D01*
X007226Y009647D02*
X007226Y009977D01*
X007706Y009977D01*
X007706Y009647D01*
X007226Y009647D01*
X007226Y009756D02*
X007706Y009756D01*
X007706Y009865D02*
X007226Y009865D01*
X007226Y009974D02*
X007706Y009974D01*
X007226Y010347D02*
X007226Y010677D01*
X007706Y010677D01*
X007706Y010347D01*
X007226Y010347D01*
X007226Y010456D02*
X007706Y010456D01*
X007706Y010565D02*
X007226Y010565D01*
X007226Y010674D02*
X007706Y010674D01*
X008139Y012257D02*
X008423Y012422D01*
X008663Y012007D01*
X008379Y011842D01*
X008139Y012257D01*
X008316Y011951D02*
X008567Y011951D01*
X008632Y012060D02*
X008253Y012060D01*
X008190Y012169D02*
X008569Y012169D01*
X008506Y012278D02*
X008175Y012278D01*
X008363Y012387D02*
X008443Y012387D01*
X008746Y012607D02*
X009030Y012772D01*
X009270Y012357D01*
X008986Y012192D01*
X008746Y012607D01*
X008923Y012301D02*
X009174Y012301D01*
X009239Y012410D02*
X008860Y012410D01*
X008797Y012519D02*
X009176Y012519D01*
X009113Y012628D02*
X008782Y012628D01*
X008970Y012737D02*
X009050Y012737D01*
X009428Y014691D02*
X009758Y014691D01*
X009758Y014211D01*
X009428Y014211D01*
X009428Y014691D01*
X009428Y014320D02*
X009758Y014320D01*
X009758Y014429D02*
X009428Y014429D01*
X009428Y014538D02*
X009758Y014538D01*
X009758Y014647D02*
X009428Y014647D01*
X010128Y014691D02*
X010458Y014691D01*
X010458Y014211D01*
X010128Y014211D01*
X010128Y014691D01*
X010128Y014320D02*
X010458Y014320D01*
X010458Y014429D02*
X010128Y014429D01*
X010128Y014538D02*
X010458Y014538D01*
X010458Y014647D02*
X010128Y014647D01*
X012094Y014916D02*
X012378Y014751D01*
X012138Y014336D01*
X011854Y014501D01*
X012094Y014916D01*
X012201Y014445D02*
X011950Y014445D01*
X011885Y014554D02*
X012264Y014554D01*
X012327Y014663D02*
X011948Y014663D01*
X012011Y014772D02*
X012342Y014772D01*
X012154Y014881D02*
X012074Y014881D01*
X012700Y014566D02*
X012984Y014401D01*
X012744Y013986D01*
X012460Y014151D01*
X012700Y014566D01*
X012807Y014095D02*
X012556Y014095D01*
X012491Y014204D02*
X012870Y014204D01*
X012933Y014313D02*
X012554Y014313D01*
X012617Y014422D02*
X012948Y014422D01*
X012760Y014531D02*
X012680Y014531D01*
X013607Y012872D02*
X013772Y012588D01*
X013357Y012348D01*
X013192Y012632D01*
X013607Y012872D01*
X013545Y012457D02*
X013294Y012457D01*
X013230Y012566D02*
X013734Y012566D01*
X013721Y012675D02*
X013266Y012675D01*
X013455Y012784D02*
X013658Y012784D01*
X013957Y012265D02*
X014122Y011981D01*
X013707Y011741D01*
X013542Y012025D01*
X013957Y012265D01*
X013895Y011850D02*
X013644Y011850D01*
X013580Y011959D02*
X014084Y011959D01*
X014071Y012068D02*
X013616Y012068D01*
X013805Y012177D02*
X014008Y012177D01*
X015135Y010677D02*
X015135Y010347D01*
X014655Y010347D01*
X014655Y010677D01*
X015135Y010677D01*
X015135Y010456D02*
X014655Y010456D01*
X014655Y010565D02*
X015135Y010565D01*
X015135Y010674D02*
X014655Y010674D01*
X015135Y009977D02*
X015135Y009647D01*
X014655Y009647D01*
X014655Y009977D01*
X015135Y009977D01*
X015135Y009756D02*
X014655Y009756D01*
X014655Y009865D02*
X015135Y009865D01*
X015135Y009974D02*
X014655Y009974D01*
X014122Y008343D02*
X013957Y008059D01*
X013542Y008299D01*
X013707Y008583D01*
X014122Y008343D01*
X014020Y008168D02*
X013769Y008168D01*
X013580Y008277D02*
X014084Y008277D01*
X014048Y008386D02*
X013593Y008386D01*
X013656Y008495D02*
X013859Y008495D01*
X013772Y007737D02*
X013607Y007453D01*
X013192Y007693D01*
X013357Y007977D01*
X013772Y007737D01*
X013670Y007562D02*
X013419Y007562D01*
X013230Y007671D02*
X013734Y007671D01*
X013698Y007780D02*
X013243Y007780D01*
X013306Y007889D02*
X013509Y007889D01*
X011746Y008068D02*
X011462Y007903D01*
X011222Y008318D01*
X011506Y008483D01*
X011746Y008068D01*
X011650Y008012D02*
X011399Y008012D01*
X011336Y008121D02*
X011715Y008121D01*
X011652Y008230D02*
X011273Y008230D01*
X011258Y008339D02*
X011589Y008339D01*
X011526Y008448D02*
X011446Y008448D01*
X011139Y007718D02*
X010855Y007553D01*
X010615Y007968D01*
X010899Y008133D01*
X011139Y007718D01*
X011043Y007662D02*
X010792Y007662D01*
X010729Y007771D02*
X011108Y007771D01*
X011045Y007880D02*
X010666Y007880D01*
X010651Y007989D02*
X010982Y007989D01*
X010919Y008098D02*
X010839Y008098D01*
X010183Y009647D02*
X010183Y009977D01*
X010183Y009647D02*
X009703Y009647D01*
X009703Y009977D01*
X010183Y009977D01*
X010183Y009756D02*
X009703Y009756D01*
X009703Y009865D02*
X010183Y009865D01*
X010183Y009974D02*
X009703Y009974D01*
X010183Y010347D02*
X010183Y010677D01*
X010183Y010347D02*
X009703Y010347D01*
X009703Y010677D01*
X010183Y010677D01*
X010183Y010456D02*
X009703Y010456D01*
X009703Y010565D02*
X010183Y010565D01*
X010183Y010674D02*
X009703Y010674D01*
X010855Y012772D02*
X011139Y012607D01*
X010899Y012192D01*
X010615Y012357D01*
X010855Y012772D01*
X010962Y012301D02*
X010711Y012301D01*
X010646Y012410D02*
X011025Y012410D01*
X011088Y012519D02*
X010709Y012519D01*
X010772Y012628D02*
X011103Y012628D01*
X010915Y012737D02*
X010835Y012737D01*
X011462Y012422D02*
X011746Y012257D01*
X011506Y011842D01*
X011222Y012007D01*
X011462Y012422D01*
X011569Y011951D02*
X011318Y011951D01*
X011253Y012060D02*
X011632Y012060D01*
X011695Y012169D02*
X011316Y012169D01*
X011379Y012278D02*
X011710Y012278D01*
X011522Y012387D02*
X011442Y012387D01*
X012659Y010677D02*
X012659Y010347D01*
X012179Y010347D01*
X012179Y010677D01*
X012659Y010677D01*
X012659Y010456D02*
X012179Y010456D01*
X012179Y010565D02*
X012659Y010565D01*
X012659Y010674D02*
X012179Y010674D01*
X012659Y009977D02*
X012659Y009647D01*
X012179Y009647D01*
X012179Y009977D01*
X012659Y009977D01*
X012659Y009756D02*
X012179Y009756D01*
X012179Y009865D02*
X012659Y009865D01*
X012659Y009974D02*
X012179Y009974D01*
X007792Y005408D02*
X007508Y005573D01*
X007748Y005988D01*
X008032Y005823D01*
X007792Y005408D01*
X007855Y005517D02*
X007604Y005517D01*
X007539Y005626D02*
X007918Y005626D01*
X007981Y005735D02*
X007602Y005735D01*
X007665Y005844D02*
X007996Y005844D01*
X007808Y005953D02*
X007728Y005953D01*
X007185Y005758D02*
X006901Y005923D01*
X007141Y006338D01*
X007425Y006173D01*
X007185Y005758D01*
X007248Y005867D02*
X006997Y005867D01*
X006932Y005976D02*
X007311Y005976D01*
X007374Y006085D02*
X006995Y006085D01*
X007058Y006194D02*
X007389Y006194D01*
X007201Y006303D02*
X007121Y006303D01*
X006278Y007453D02*
X006113Y007737D01*
X006528Y007977D01*
X006693Y007693D01*
X006278Y007453D01*
X006215Y007562D02*
X006466Y007562D01*
X006655Y007671D02*
X006151Y007671D01*
X006187Y007780D02*
X006642Y007780D01*
X006579Y007889D02*
X006376Y007889D01*
X005928Y008059D02*
X005763Y008343D01*
X006178Y008583D01*
X006343Y008299D01*
X005928Y008059D01*
X005865Y008168D02*
X006116Y008168D01*
X006305Y008277D02*
X005801Y008277D01*
X005837Y008386D02*
X006292Y008386D01*
X006229Y008495D02*
X006026Y008495D01*
X004750Y009647D02*
X004750Y009977D01*
X005230Y009977D01*
X005230Y009647D01*
X004750Y009647D01*
X004750Y009756D02*
X005230Y009756D01*
X005230Y009865D02*
X004750Y009865D01*
X004750Y009974D02*
X005230Y009974D01*
X004750Y010347D02*
X004750Y010677D01*
X005230Y010677D01*
X005230Y010347D01*
X004750Y010347D01*
X004750Y010456D02*
X005230Y010456D01*
X005230Y010565D02*
X004750Y010565D01*
X004750Y010674D02*
X005230Y010674D01*
X005763Y011981D02*
X005928Y012265D01*
X006343Y012025D01*
X006178Y011741D01*
X005763Y011981D01*
X005990Y011850D02*
X006241Y011850D01*
X006305Y011959D02*
X005801Y011959D01*
X005814Y012068D02*
X006269Y012068D01*
X006080Y012177D02*
X005877Y012177D01*
X006113Y012588D02*
X006278Y012872D01*
X006693Y012632D01*
X006528Y012348D01*
X006113Y012588D01*
X006340Y012457D02*
X006591Y012457D01*
X006655Y012566D02*
X006151Y012566D01*
X006164Y012675D02*
X006619Y012675D01*
X006430Y012784D02*
X006227Y012784D01*
X006901Y014401D02*
X007185Y014566D01*
X007425Y014151D01*
X007141Y013986D01*
X006901Y014401D01*
X007078Y014095D02*
X007329Y014095D01*
X007394Y014204D02*
X007015Y014204D01*
X006952Y014313D02*
X007331Y014313D01*
X007268Y014422D02*
X006937Y014422D01*
X007125Y014531D02*
X007205Y014531D01*
X007508Y014751D02*
X007792Y014916D01*
X008032Y014501D01*
X007748Y014336D01*
X007508Y014751D01*
X007685Y014445D02*
X007936Y014445D01*
X008001Y014554D02*
X007622Y014554D01*
X007559Y014663D02*
X007938Y014663D01*
X007875Y014772D02*
X007544Y014772D01*
X007732Y014881D02*
X007812Y014881D01*
X008154Y016733D02*
X008477Y016795D01*
X008568Y016325D01*
X008245Y016263D01*
X008154Y016733D01*
X008224Y016372D02*
X008559Y016372D01*
X008538Y016481D02*
X008203Y016481D01*
X008182Y016590D02*
X008517Y016590D01*
X008496Y016699D02*
X008161Y016699D01*
X008841Y016865D02*
X009164Y016927D01*
X009255Y016457D01*
X008932Y016395D01*
X008841Y016865D01*
X008911Y016504D02*
X009246Y016504D01*
X009225Y016613D02*
X008890Y016613D01*
X008869Y016722D02*
X009204Y016722D01*
X009183Y016831D02*
X008848Y016831D01*
X010721Y016927D02*
X011044Y016865D01*
X010953Y016395D01*
X010630Y016457D01*
X010721Y016927D01*
X010639Y016504D02*
X010974Y016504D01*
X010995Y016613D02*
X010660Y016613D01*
X010681Y016722D02*
X011016Y016722D01*
X011037Y016831D02*
X010702Y016831D01*
X011408Y016795D02*
X011731Y016733D01*
X011640Y016263D01*
X011317Y016325D01*
X011408Y016795D01*
X011326Y016372D02*
X011661Y016372D01*
X011682Y016481D02*
X011347Y016481D01*
X011368Y016590D02*
X011703Y016590D01*
X011724Y016699D02*
X011389Y016699D01*
X006553Y017060D02*
X006269Y016895D01*
X006553Y017060D02*
X006793Y016645D01*
X006509Y016480D01*
X006269Y016895D01*
X006446Y016589D02*
X006697Y016589D01*
X006762Y016698D02*
X006383Y016698D01*
X006320Y016807D02*
X006699Y016807D01*
X006636Y016916D02*
X006305Y016916D01*
X006493Y017025D02*
X006573Y017025D01*
X005947Y016710D02*
X005663Y016545D01*
X005947Y016710D02*
X006187Y016295D01*
X005903Y016130D01*
X005663Y016545D01*
X005840Y016239D02*
X006091Y016239D01*
X006156Y016348D02*
X005777Y016348D01*
X005714Y016457D02*
X006093Y016457D01*
X006030Y016566D02*
X005699Y016566D01*
X005887Y016675D02*
X005967Y016675D01*
X005146Y014996D02*
X004930Y014747D01*
X005146Y014996D02*
X005508Y014683D01*
X005292Y014434D01*
X004930Y014747D01*
X005166Y014543D02*
X005387Y014543D01*
X005481Y014652D02*
X005040Y014652D01*
X004942Y014761D02*
X005418Y014761D01*
X005292Y014870D02*
X005037Y014870D01*
X005131Y014979D02*
X005166Y014979D01*
X004688Y014467D02*
X004472Y014218D01*
X004688Y014467D02*
X005050Y014154D01*
X004834Y013905D01*
X004472Y014218D01*
X004708Y014014D02*
X004929Y014014D01*
X005023Y014123D02*
X004582Y014123D01*
X004484Y014232D02*
X004960Y014232D01*
X004834Y014341D02*
X004579Y014341D01*
X004673Y014450D02*
X004708Y014450D01*
X003695Y012871D02*
X003587Y012560D01*
X003695Y012871D02*
X004147Y012714D01*
X004039Y012403D01*
X003587Y012560D01*
X003725Y012512D02*
X004077Y012512D01*
X004115Y012621D02*
X003608Y012621D01*
X003646Y012730D02*
X004101Y012730D01*
X003787Y012839D02*
X003684Y012839D01*
X003466Y012210D02*
X003358Y011899D01*
X003466Y012210D02*
X003918Y012053D01*
X003810Y011742D01*
X003358Y011899D01*
X003496Y011851D02*
X003848Y011851D01*
X003886Y011960D02*
X003379Y011960D01*
X003417Y012069D02*
X003872Y012069D01*
X003558Y012178D02*
X003455Y012178D01*
X002274Y010677D02*
X002274Y010347D01*
X002274Y010677D02*
X002754Y010677D01*
X002754Y010347D01*
X002274Y010347D01*
X002274Y010456D02*
X002754Y010456D01*
X002754Y010565D02*
X002274Y010565D01*
X002274Y010674D02*
X002754Y010674D01*
X002274Y009977D02*
X002274Y009647D01*
X002274Y009977D02*
X002754Y009977D01*
X002754Y009647D01*
X002274Y009647D01*
X002274Y009756D02*
X002754Y009756D01*
X002754Y009865D02*
X002274Y009865D01*
X002274Y009974D02*
X002754Y009974D01*
X003358Y008426D02*
X003466Y008115D01*
X003358Y008426D02*
X003810Y008583D01*
X003918Y008272D01*
X003466Y008115D01*
X003428Y008224D02*
X003780Y008224D01*
X003897Y008333D02*
X003390Y008333D01*
X003404Y008442D02*
X003859Y008442D01*
X003821Y008551D02*
X003718Y008551D01*
X003587Y007764D02*
X003695Y007453D01*
X003587Y007764D02*
X004039Y007921D01*
X004147Y007610D01*
X003695Y007453D01*
X003657Y007562D02*
X004009Y007562D01*
X004126Y007671D02*
X003619Y007671D01*
X003633Y007780D02*
X004088Y007780D01*
X004050Y007889D02*
X003947Y007889D01*
X004472Y006106D02*
X004688Y005857D01*
X004472Y006106D02*
X004834Y006419D01*
X005050Y006170D01*
X004688Y005857D01*
X004593Y005966D02*
X004814Y005966D01*
X004940Y006075D02*
X004499Y006075D01*
X004562Y006184D02*
X005038Y006184D01*
X004943Y006293D02*
X004688Y006293D01*
X004814Y006402D02*
X004849Y006402D01*
X004930Y005577D02*
X005146Y005328D01*
X004930Y005577D02*
X005292Y005890D01*
X005508Y005641D01*
X005146Y005328D01*
X005051Y005437D02*
X005272Y005437D01*
X005398Y005546D02*
X004957Y005546D01*
X005020Y005655D02*
X005496Y005655D01*
X005401Y005764D02*
X005146Y005764D01*
X005272Y005873D02*
X005307Y005873D01*
X005663Y003779D02*
X005947Y003614D01*
X005663Y003779D02*
X005903Y004194D01*
X006187Y004029D01*
X005947Y003614D01*
X006010Y003723D02*
X005759Y003723D01*
X005694Y003832D02*
X006073Y003832D01*
X006136Y003941D02*
X005757Y003941D01*
X005820Y004050D02*
X006151Y004050D01*
X005963Y004159D02*
X005883Y004159D01*
X006269Y003429D02*
X006553Y003264D01*
X006269Y003429D02*
X006509Y003844D01*
X006793Y003679D01*
X006553Y003264D01*
X006616Y003373D02*
X006365Y003373D01*
X006300Y003482D02*
X006679Y003482D01*
X006742Y003591D02*
X006363Y003591D01*
X006426Y003700D02*
X006757Y003700D01*
X006569Y003809D02*
X006489Y003809D01*
X008154Y003591D02*
X008477Y003529D01*
X008154Y003591D02*
X008245Y004061D01*
X008568Y003999D01*
X008477Y003529D01*
X008498Y003638D02*
X008163Y003638D01*
X008184Y003747D02*
X008519Y003747D01*
X008540Y003856D02*
X008205Y003856D01*
X008226Y003965D02*
X008561Y003965D01*
X008841Y003459D02*
X009164Y003397D01*
X008841Y003459D02*
X008932Y003929D01*
X009255Y003867D01*
X009164Y003397D01*
X009185Y003506D02*
X008850Y003506D01*
X008871Y003615D02*
X009206Y003615D01*
X009227Y003724D02*
X008892Y003724D01*
X008913Y003833D02*
X009248Y003833D01*
X010721Y003397D02*
X011044Y003459D01*
X010721Y003397D02*
X010630Y003867D01*
X010953Y003929D01*
X011044Y003459D01*
X011035Y003506D02*
X010700Y003506D01*
X010679Y003615D02*
X011014Y003615D01*
X010993Y003724D02*
X010658Y003724D01*
X010637Y003833D02*
X010972Y003833D01*
X011408Y003529D02*
X011731Y003591D01*
X011408Y003529D02*
X011317Y003999D01*
X011640Y004061D01*
X011731Y003591D01*
X011722Y003638D02*
X011387Y003638D01*
X011366Y003747D02*
X011701Y003747D01*
X011680Y003856D02*
X011345Y003856D01*
X011324Y003965D02*
X011659Y003965D01*
X013332Y003264D02*
X013616Y003429D01*
X013332Y003264D02*
X013092Y003679D01*
X013376Y003844D01*
X013616Y003429D01*
X013520Y003373D02*
X013269Y003373D01*
X013206Y003482D02*
X013585Y003482D01*
X013522Y003591D02*
X013143Y003591D01*
X013128Y003700D02*
X013459Y003700D01*
X013396Y003809D02*
X013316Y003809D01*
X013938Y003614D02*
X014222Y003779D01*
X013938Y003614D02*
X013698Y004029D01*
X013982Y004194D01*
X014222Y003779D01*
X014126Y003723D02*
X013875Y003723D01*
X013812Y003832D02*
X014191Y003832D01*
X014128Y003941D02*
X013749Y003941D01*
X013734Y004050D02*
X014065Y004050D01*
X014002Y004159D02*
X013922Y004159D01*
D13*
X015543Y010162D03*
X016773Y010162D03*
D14*
X016773Y009162D03*
X015513Y009162D03*
X015513Y011162D03*
X016773Y011162D03*
D15*
X012797Y017498D02*
X012735Y017469D01*
X012668Y017452D01*
X012600Y017446D01*
X012532Y017452D01*
X012465Y017469D01*
X012403Y017498D01*
X012347Y017538D01*
X012298Y017586D01*
X012259Y017642D01*
X012230Y017705D01*
X012212Y017771D01*
X012206Y017839D01*
X012212Y017908D01*
X012230Y017974D01*
X012259Y018036D01*
X012298Y018092D01*
X012347Y018141D01*
X012403Y018180D01*
X012465Y018209D01*
X012532Y018227D01*
X012600Y018233D01*
X012668Y018227D01*
X012735Y018209D01*
X012797Y018180D01*
X012853Y018141D01*
X012902Y018092D01*
X012941Y018036D01*
X012970Y017974D01*
X012988Y017908D01*
X012994Y017839D01*
X012988Y017771D01*
X012970Y017705D01*
X012941Y017642D01*
X012902Y017586D01*
X012853Y017538D01*
X012797Y017498D01*
X012770Y017486D02*
X012430Y017486D01*
X012352Y017534D02*
X012848Y017534D01*
X012898Y017583D02*
X012302Y017583D01*
X012267Y017631D02*
X012933Y017631D01*
X012958Y017680D02*
X012242Y017680D01*
X012224Y017728D02*
X012976Y017728D01*
X012988Y017777D02*
X012212Y017777D01*
X012208Y017825D02*
X012992Y017825D01*
X012991Y017874D02*
X012209Y017874D01*
X012216Y017922D02*
X012984Y017922D01*
X012971Y017971D02*
X012229Y017971D01*
X012251Y018019D02*
X012949Y018019D01*
X012919Y018068D02*
X012281Y018068D01*
X012322Y018116D02*
X012878Y018116D01*
X012819Y018165D02*
X012381Y018165D01*
X012480Y018213D02*
X012720Y018213D01*
X002370Y008840D02*
X002409Y008784D01*
X002438Y008722D01*
X002456Y008656D01*
X002462Y008587D01*
X002456Y008519D01*
X002438Y008453D01*
X002409Y008391D01*
X002370Y008334D01*
X002322Y008286D01*
X002265Y008246D01*
X002203Y008217D01*
X002137Y008200D01*
X002069Y008194D01*
X002000Y008200D01*
X001934Y008217D01*
X001872Y008246D01*
X001815Y008286D01*
X001767Y008334D01*
X001728Y008391D01*
X001699Y008453D01*
X001681Y008519D01*
X001675Y008587D01*
X001681Y008656D01*
X001699Y008722D01*
X001728Y008784D01*
X001767Y008840D01*
X001815Y008889D01*
X001872Y008928D01*
X001934Y008957D01*
X002000Y008975D01*
X002069Y008981D01*
X002137Y008975D01*
X002203Y008957D01*
X002265Y008928D01*
X002322Y008889D01*
X002370Y008840D01*
X002358Y008853D02*
X001779Y008853D01*
X001742Y008804D02*
X002395Y008804D01*
X002423Y008756D02*
X001714Y008756D01*
X001695Y008707D02*
X002442Y008707D01*
X002455Y008659D02*
X001682Y008659D01*
X001677Y008610D02*
X002460Y008610D01*
X002460Y008562D02*
X001677Y008562D01*
X001682Y008513D02*
X002455Y008513D01*
X002442Y008465D02*
X001695Y008465D01*
X001716Y008416D02*
X002421Y008416D01*
X002393Y008368D02*
X001744Y008368D01*
X001782Y008319D02*
X002355Y008319D01*
X002300Y008271D02*
X001837Y008271D01*
X001924Y008222D02*
X002213Y008222D01*
X002304Y008901D02*
X001833Y008901D01*
X001917Y008950D02*
X002220Y008950D01*
X014789Y004194D02*
X014818Y004257D01*
X014857Y004313D01*
X014906Y004361D01*
X014962Y004401D01*
X015024Y004430D01*
X015091Y004448D01*
X015159Y004453D01*
X015227Y004448D01*
X015294Y004430D01*
X015356Y004401D01*
X015412Y004361D01*
X015461Y004313D01*
X015500Y004257D01*
X015529Y004194D01*
X015547Y004128D01*
X015553Y004060D01*
X015547Y003991D01*
X015529Y003925D01*
X015500Y003863D01*
X015461Y003807D01*
X015412Y003758D01*
X015356Y003719D01*
X015294Y003690D01*
X015227Y003672D01*
X015159Y003666D01*
X015091Y003672D01*
X015024Y003690D01*
X014962Y003719D01*
X014906Y003758D01*
X014857Y003807D01*
X014818Y003863D01*
X014789Y003925D01*
X014771Y003991D01*
X014765Y004060D01*
X014771Y004128D01*
X014789Y004194D01*
X014790Y004197D02*
X015528Y004197D01*
X015541Y004148D02*
X014777Y004148D01*
X014769Y004100D02*
X015549Y004100D01*
X015552Y004051D02*
X014766Y004051D01*
X014770Y004003D02*
X015548Y004003D01*
X015537Y003954D02*
X014781Y003954D01*
X014798Y003906D02*
X015520Y003906D01*
X015496Y003857D02*
X014822Y003857D01*
X014856Y003809D02*
X015462Y003809D01*
X015414Y003760D02*
X014904Y003760D01*
X014978Y003712D02*
X015340Y003712D01*
X015505Y004245D02*
X014813Y004245D01*
X014844Y004294D02*
X015474Y004294D01*
X015431Y004342D02*
X014887Y004342D01*
X014948Y004391D02*
X015370Y004391D01*
X015259Y004439D02*
X015059Y004439D01*
M02*
