%
M48
M72
T01C0.0120
T02C0.0320
T03C0.0374
T04C0.1260
%
T01
X5636Y15969
X8958Y15969
X12920Y15403
X12920Y16486
X11739Y7751
X10041Y8292
X7703Y10900
X8737Y9424
X14839Y11171
X7679Y12820
X12206Y14124
X7014Y10187
X6178Y10187
X8220Y9965
X7679Y9424
X9180Y9301
X13240Y9965
X9500Y8981
X13240Y10285
X9819Y14985
X14273Y13213
X13781Y14025
X14421Y14296
X11985Y7997
X13412Y7308
X14027Y7455
X14076Y8637
X13683Y7013
X15134Y8120
X13289Y5807
X5612Y4429
X4332Y6914
X4332Y7825
X4701Y8194
X4628Y10162
X14076Y10654
X15922Y10531
X13240Y8932
X11739Y7431
X7605Y5266
X8171Y4281
X11493Y6447
X11714Y13336
X7482Y11909
X7999Y12426
X15750Y11983
X15356Y12377
X15774Y8391
X17152Y10900
X10730Y13828
X6448Y14714
X7482Y13853
X8491Y5733
X8491Y6250
X16045Y9793
X16512Y9793
X17374Y9079
X17374Y11122
X13756Y5118
X14101Y12721
X15134Y12721
X15823Y13410
X9672Y12918
X13191Y12008
X12354Y12844
X13830Y16904
X12600Y16265
X11370Y15206
X11960Y3543
X6842Y5708
X3102Y7825
X5563Y6693
X8835Y15206
X6375Y15182
X7359Y6471
X8811Y5733
X8811Y6570
X8811Y7037
X11936Y12598
X11591Y13828
X11591Y14419
X11591Y16043
X3397Y11589
X6645Y13878
X6744Y6496
X5243Y7997
X4406Y11589
X11296Y7308
X11591Y8981
X15356Y7037
X11197Y6594
X8638Y16953
X8146Y15699
X9155Y8292
X5021Y8292
X5735Y11737
X6055Y16904
X10878Y5708
X9992Y6594
X7802Y4650
X15381Y6422
X14322Y5364
X12698Y5364
X11739Y5585
X8269Y10777
X13461Y9473
X13240Y8292
X7949Y13213
X7383Y13140
X6202Y13115
X4972Y13115
X4111Y12967
X2807Y12204
X6645Y10556
X5464Y8932
X4849Y8932
X3865Y8932
X13633Y4355
X11788Y4355
T02
X16773Y10162
X15543Y10162
X16773Y9162
X16773Y11162
X15513Y11162
X15513Y9162
T03
X4431Y5103
X4431Y4198
X4431Y16127
X4431Y15221
T04
X5612Y17662
X14273Y17662
X18604Y10162
X14273Y2662
X5612Y2662
X1281Y10162
M30
